<?xml version="1.0" encoding="UTF-8"?>
<svg version="1.1" xmlns="http://www.w3.org/2000/svg" width="433" height="577">
<path d="M0 0 C0 15.84 0 31.68 0 48 C-2.55126768 49.27563384 -4.46322086 49.20373295 -7.3125 49.25 C-8.25738281 49.27578125 -9.20226562 49.3015625 -10.17578125 49.328125 C-16.5975429 48.58202821 -19.93731081 44.14049997 -23.8125 39.4375 C-24.56563477 38.55288086 -24.56563477 38.55288086 -25.33398438 37.65039062 C-29 33.2661352 -29 33.2661352 -29 31 C-29.66 31 -30.32 31 -31 31 C-32.625 29.5 -32.625 29.5 -34 28 C-33.99476318 28.60062256 -33.98952637 29.20124512 -33.98413086 29.82006836 C-33.96341986 32.52586838 -33.95035875 35.23165177 -33.9375 37.9375 C-33.92912109 38.88302734 -33.92074219 39.82855469 -33.91210938 40.80273438 C-33.90888672 41.70185547 -33.90566406 42.60097656 -33.90234375 43.52734375 C-33.89710693 44.35999756 -33.89187012 45.19265137 -33.88647461 46.05053711 C-34 48 -34 48 -35 49 C-36.78940972 49.09908783 -38.58285508 49.12970379 -40.375 49.125 C-41.35210937 49.12757813 -42.32921875 49.13015625 -43.3359375 49.1328125 C-46 49 -46 49 -49 48 C-49 32.16 -49 16.32 -49 0 C-34 0 -34 0 -28.5 4.9375 C-26.95882538 6.92711005 -25.45732123 8.94817589 -24 11 C-22.6289857 12.73232854 -21.25441698 14.46185486 -19.875 16.1875 C-18.92625 17.445625 -17.9775 18.70375 -17 20 C-16.67 13.4 -16.34 6.8 -16 0 C-13 -1 -13 -1 0 0 Z " fill="#B5538D" transform="translate(286,264)"/>
<path d="M0 0 C1.64258789 0.04737305 1.64258789 0.04737305 3.31835938 0.09570312 C11.35522691 0.42598535 19.43848376 0.98350815 25.875 6.1875 C32.45106423 14.55703629 32.77023407 22.73088415 31.69921875 33.125 C30.65280536 38.53675411 28.02757953 42.27589454 23.9375 45.8125 C15.75625061 50.27499967 7.20654677 49.99431337 -1.875 50 C-2.92365234 50.01224609 -3.97230469 50.02449219 -5.05273438 50.03710938 C-6.05240234 50.03904297 -7.05207031 50.04097656 -8.08203125 50.04296875 C-8.99057861 50.04707764 -9.89912598 50.05118652 -10.83520508 50.05541992 C-13.0625 49.8125 -13.0625 49.8125 -15.0625 47.8125 C-15.32319641 45.83911133 -15.32319641 45.83911133 -15.3371582 43.39453125 C-15.35145622 42.02300903 -15.35145622 42.02300903 -15.36604309 40.6237793 C-15.36513168 39.63418213 -15.36422028 38.64458496 -15.36328125 37.625 C-15.36756638 36.61155518 -15.3718515 35.59811035 -15.37626648 34.55395508 C-15.38201609 32.40869902 -15.38250542 30.26342346 -15.37817383 28.11816406 C-15.3750128 24.82583577 -15.39846929 21.53440465 -15.42382812 18.2421875 C-15.42610084 16.16145947 -15.42680474 14.08072902 -15.42578125 12 C-15.434991 11.01040283 -15.44420074 10.02080566 -15.45368958 9.0012207 C-15.44746078 8.08687256 -15.44123199 7.17252441 -15.43481445 6.23046875 C-15.43544388 5.42375732 -15.4360733 4.6170459 -15.4367218 3.78588867 C-15.25148201 2.80906128 -15.25148201 2.80906128 -15.0625 1.8125 C-10.34488705 -1.3325753 -5.52475026 -0.25069229 0 0 Z M1.9375 13.8125 C1.9375 21.4025 1.9375 28.9925 1.9375 36.8125 C8.81634005 37.01484184 8.81634005 37.01484184 13.9375 33.8125 C16.15801978 29.37146045 15.4507876 23.63501606 14.9375 18.8125 C13.20307234 15.325072 13.20307234 15.325072 9.9375 13.8125 C7.2975 13.8125 4.6575 13.8125 1.9375 13.8125 Z " fill="#1CA0A6" transform="translate(53.0625,263.1875)"/>
<path d="M0 0 C13.96148334 -1.272786 13.96148334 -1.272786 20 0 C23.42321742 2.86104682 24.81310439 5.73934909 26 10 C27.82840273 7.62307645 29.26035345 5.47802925 30.609375 2.7734375 C33 0 33 0 35.00585938 -0.47949219 C37.44657645 -0.59136694 39.81145013 -0.52359913 42.25 -0.375 C43.51070313 -0.33439453 43.51070313 -0.33439453 44.796875 -0.29296875 C46.86568634 -0.22244109 48.93317393 -0.11482367 51 0 C50.36789019 3.43047704 49.04224303 5.69658283 47.05859375 8.546875 C46.47529297 9.39121094 45.89199219 10.23554688 45.29101562 11.10546875 C44.67935547 11.97816406 44.06769531 12.85085938 43.4375 13.75 C42.82197266 14.63816406 42.20644531 15.52632813 41.57226562 16.44140625 C40.05343811 18.6313436 38.52921504 20.81730949 37 23 C37.54140625 23.83144531 37.54140625 23.83144531 38.09375 24.6796875 C38.5578125 25.40414063 39.021875 26.12859375 39.5 26.875 C39.9640625 27.59429687 40.428125 28.31359375 40.90625 29.0546875 C42 31 42 31 42 33 C42.66 33 43.32 33 44 33 C47 37.38461538 47 37.38461538 47 40 C47.66 40 48.32 40 49 40 C50.32 42.64 51.64 45.28 53 48 C51.0604886 49.9395114 48.1879288 49.13256629 45.61132812 49.13671875 C44.3496582 49.13091797 44.3496582 49.13091797 43.0625 49.125 C41.80663086 49.13080078 41.80663086 49.13080078 40.52539062 49.13671875 C39.72423828 49.13542969 38.92308594 49.13414062 38.09765625 49.1328125 C37.36039307 49.13168457 36.62312988 49.13055664 35.86352539 49.12939453 C34 49 34 49 32 48 C31.1133731 46.57344005 30.28742534 45.10862458 29.5 43.625 C28.08527208 40.97669834 26.669303 38.50395451 25 36 C24.51789063 36.77085937 24.03578125 37.54171875 23.5390625 38.3359375 C22.90742188 39.33882813 22.27578125 40.34171875 21.625 41.375 C20.68527344 42.87160156 20.68527344 42.87160156 19.7265625 44.3984375 C18 47 18 47 16 49 C13.0906442 49.14517744 10.280054 49.18630796 7.375 49.125 C6.57320313 49.11597656 5.77140625 49.10695313 4.9453125 49.09765625 C2.96341477 49.07406223 0.98167019 49.03819065 -1 49 C-1 45.08867677 0.35764427 43.6464646 2.5625 40.4375 C3.64724609 38.85001953 3.64724609 38.85001953 4.75390625 37.23046875 C5.49511719 36.16441406 6.23632812 35.09835937 7 34 C7.68964844 33.00613281 8.37929688 32.01226562 9.08984375 30.98828125 C10.71873855 28.65319892 12.35491014 26.32368943 14 24 C10.78843436 17.24463779 6.48597896 10.95343139 2.0625 4.9375 C0 2 0 2 0 0 Z " fill="#CC4A81" transform="translate(345,264)"/>
<path d="M0 0 C2.94808469 7.27080423 5.75500564 14.58784785 8.5 21.9375 C8.87769531 22.94490234 9.25539062 23.95230469 9.64453125 24.99023438 C10.39609625 26.99828175 11.14356526 29.00786742 11.88671875 31.01904297 C12.64172479 33.04067097 13.41584042 35.05524553 14.20703125 37.06298828 C14.58214844 38.03349121 14.95726562 39.00399414 15.34375 40.00390625 C15.85711914 41.3024353 15.85711914 41.3024353 16.38085938 42.62719727 C17.05258189 45.20151552 16.8850171 46.52503107 16 49 C13.56131832 49.1079859 11.12740867 49.18726589 8.6875 49.25 C7.99720703 49.28351563 7.30691406 49.31703125 6.59570312 49.3515625 C1.48778835 49.45026617 1.48778835 49.45026617 -0.98046875 47.171875 C-2 45 -2 45 -2 42 C-7.28 42 -12.56 42 -18 42 C-18.33 43.98 -18.66 45.96 -19 48 C-20 49 -20 49 -23.08984375 49.1328125 C-24.35957031 49.13023437 -25.62929687 49.12765625 -26.9375 49.125 C-28.83822266 49.12886719 -28.83822266 49.12886719 -30.77734375 49.1328125 C-34 49 -34 49 -36 48 C-35.41678808 43.83793523 -34.46105157 40.19756231 -32.92578125 36.2890625 C-32.50796387 35.21575684 -32.09014648 34.14245117 -31.65966797 33.03662109 C-31.21510254 31.91078613 -30.77053711 30.78495117 -30.3125 29.625 C-29.40443093 27.2970766 -28.49687828 24.96895169 -27.58984375 22.640625 C-27.14753418 21.50947266 -26.70522461 20.37832031 -26.24951172 19.21289062 C-24.59020972 14.94629933 -22.97391429 10.66452531 -21.375 6.375 C-21.12790283 5.71322754 -20.88080566 5.05145508 -20.6262207 4.36962891 C-20.08310281 2.91347502 -19.54135274 1.45681103 -19 0 C-12.48755792 -0.69508823 -6.4489191 -1.31909709 0 0 Z M-10 16 C-10.67031719 17.9570868 -11.33614683 19.91571113 -12 21.875 C-12.37125 22.96554687 -12.7425 24.05609375 -13.125 25.1796875 C-14.098772 27.82620854 -14.098772 27.82620854 -14 30 C-11.36 30 -8.72 30 -6 30 C-6.28427417 28.41532272 -6.57774818 26.8322943 -6.875 25.25 C-7.11863281 23.92742187 -7.11863281 23.92742187 -7.3671875 22.578125 C-7.96796264 20.13052256 -8.77997117 18.19400143 -10 16 Z " fill="#7B69A3" transform="translate(121,264)"/>
<path d="M0 0 C6.27 0 12.54 0 19 0 C23.49632677 8.99265354 23.49632677 8.99265354 24.96484375 13.35546875 C25.28775391 14.30188232 25.61066406 15.2482959 25.94335938 16.22338867 C26.27142578 17.20154541 26.59949219 18.17970215 26.9375 19.1875 C29.50552321 26.73616822 32.15344097 34.19866079 35.1875 41.57421875 C36 44 36 44 36 48 C32.79226388 49.06924537 30.37015182 49.16684956 27 49.1875 C25.948125 49.20167969 24.89625 49.21585937 23.8125 49.23046875 C21 49 21 49 18 47 C17.67 45.35 17.34 43.7 17 42 C12.05 42 7.1 42 2 42 C1.34 43.98 0.68 45.96 0 48 C-1.93923052 49.93923052 -5.36539595 49.21866472 -7.9375 49.25 C-9.20464844 49.27578125 -10.47179687 49.3015625 -11.77734375 49.328125 C-12.84082031 49.21984375 -13.90429688 49.1115625 -15 49 C-17 46 -17 46 -16.61962891 44.09667969 C-16.32491699 43.37899414 -16.03020508 42.66130859 -15.7265625 41.921875 C-15.39986572 41.10114502 -15.07316895 40.28041504 -14.73657227 39.43481445 C-14.36975342 38.54882568 -14.00293457 37.66283691 -13.625 36.75 C-12.87311126 34.86455058 -12.12453408 32.9777779 -11.37890625 31.08984375 C-10.98719238 30.10097168 -10.59547852 29.11209961 -10.19189453 28.09326172 C-7.80018878 21.8861925 -5.68191152 15.58251289 -3.52783203 9.29003906 C-3.21056152 8.36545898 -2.89329102 7.44087891 -2.56640625 6.48828125 C-2.28740479 5.66884033 -2.00840332 4.84939941 -1.72094727 4.00512695 C-1 2 -1 2 0 0 Z M9 18 C6.29155119 23.73290915 6.29155119 23.73290915 6 30 C8.31 30 10.62 30 13 30 C12.49202991 25.6822542 11.80317221 21.96697886 10 18 C9.67 18 9.34 18 9 18 Z " fill="#DB7BC3" transform="translate(196,264)"/>
<path d="M0 0 C1.703125 2.53125 1.703125 2.53125 3.25 5.5 C3.77078125 6.4796875 4.2915625 7.459375 4.828125 8.46875 C6 11 6 11 6 13 C9.71263084 9.83738854 11.70447732 6.17202588 13.94921875 1.92578125 C15 0 15 0 16 -1 C22.14520393 -1.95686566 27.90051567 -2.21989687 34 -1 C32.33422247 3.93888427 29.54282522 8.00107268 26.6875 12.3125 C25.25552617 14.4926071 23.82562573 16.67360671 22.40869141 18.86352539 C21.48764142 20.2604246 20.53750772 21.63868354 19.55615234 22.99389648 C15.97334505 28.13737207 15.26016642 32.23089927 15.25 38.4375 C15.07528294 46.92471706 15.07528294 46.92471706 14 48 C11.46950598 48.07313567 8.96695163 48.09247527 6.4375 48.0625 C5.72658203 48.05798828 5.01566406 48.05347656 4.28320312 48.04882812 C2.52209987 48.03700864 0.76103964 48.01907263 -1 48 C-2.3637397 45.27252061 -1.97318824 42.81730538 -1.93432617 39.82958984 C-1.9483817 28.68247712 -4.88436725 22.17911454 -11.75488281 13.57470703 C-13.47600544 11.39799312 -15.02379135 9.12056298 -16.5625 6.8125 C-17.01753906 6.15894531 -17.47257812 5.50539063 -17.94140625 4.83203125 C-19.05921141 2.89752712 -19.56917932 1.18314747 -20 -1 C-5.12658228 -3.53164557 -5.12658228 -3.53164557 0 0 Z " fill="#B95289" transform="translate(310,265)"/>
<path d="M0 0 C1.29381592 -0.00451172 2.58763184 -0.00902344 3.9206543 -0.01367188 C5.13922119 -0.01173828 6.35778809 -0.00980469 7.61328125 -0.0078125 C9.25937378 -0.00612061 9.25937378 -0.00612061 10.9387207 -0.00439453 C13.6875 0.125 13.6875 0.125 16.6875 1.125 C16.6875 5.415 16.6875 9.705 16.6875 14.125 C11.61350581 14.83713954 6.82245767 15.14596971 1.6875 15.125 C1.69273682 16.14972412 1.69797363 17.17444824 1.70336914 18.23022461 C1.72141969 22.01895276 1.7329322 25.80767709 1.74243164 29.59643555 C1.74747174 31.23869464 1.75430378 32.88094923 1.76293945 34.52319336 C1.77501926 36.87875479 1.78073139 39.23425709 1.78515625 41.58984375 C1.79031754 42.32839096 1.79547882 43.06693817 1.80079651 43.8278656 C1.8009925 45.59398088 1.74944719 47.35997146 1.6875 49.125 C0.6875 50.125 0.6875 50.125 -2.40234375 50.2578125 C-3.67207031 50.25523437 -4.94179687 50.25265625 -6.25 50.25 C-8.15072266 50.25386719 -8.15072266 50.25386719 -10.08984375 50.2578125 C-13.3125 50.125 -13.3125 50.125 -15.3125 49.125 C-15.6425 37.905 -15.9725 26.685 -16.3125 15.125 C-19.9425 15.125 -23.5725 15.125 -27.3125 15.125 C-28.6325 14.465 -29.9525 13.805 -31.3125 13.125 C-31.3125 9.165 -31.3125 5.205 -31.3125 1.125 C-20.87478552 0.20450864 -10.47563231 0.01549363 0 0 Z " fill="#AAB9CC" transform="translate(165.3125,262.875)"/>
<path d="M0 0 C5.75 -0.125 5.75 -0.125 8 1 C8.08834684 4.31232698 8.14083584 7.62434435 8.1875 10.9375 C8.21263672 11.86369141 8.23777344 12.78988281 8.26367188 13.74414062 C8.33010773 20.05554674 7.40207858 25.15864318 5 31 C5.66 31.33 6.32 31.66 7 32 C8.28571429 38.42857143 8.28571429 38.42857143 7 41 C5.80375 40.896875 4.6075 40.79375 3.375 40.6875 C-0.07484675 40.65713163 -1.61752678 41.13257183 -4.125 43.5 C-7 46 -7 46 -10.375 46.3125 C-11.24125 46.209375 -12.1075 46.10625 -13 46 C-15.94219205 36.50577772 -9.77324614 25.365587 -6.4375 16.5 C-5.92447063 15.11743207 -5.41209612 13.73462096 -4.90039062 12.3515625 C-1.22003793 2.44007587 -1.22003793 2.44007587 0 0 Z " fill="#7EA0C1" transform="translate(102,264)"/>
<path d="M0 0 C6.27 0 12.54 0 19 0 C26.42857143 14.85714286 26.42857143 14.85714286 24.5 24.5 C24.335 24.995 24.17 25.49 24 26 C21.23735711 26.59732819 18.83967231 27 16 27 C15.34 25.02 14.68 23.04 14 21 C13.34 21.33 12.68 21.66 12 22 C11.34 20.02 10.68 18.04 10 16 C8.02 16.66 6.04 17.32 4 18 C3.896875 18.7425 3.79375 19.485 3.6875 20.25 C2.95066203 23.1973519 2.05200858 24.78383074 0 27 C-0.66 27 -1.32 27 -2 27 C-2 9 -2 9 0 0 Z " fill="#B7D8D0" transform="translate(196,264)"/>
<path d="M0 0 C1.64258789 0.04737305 1.64258789 0.04737305 3.31835938 0.09570312 C11.65775402 0.43841797 20.42392748 1.05415106 26.9375 6.8125 C26.9375 7.4725 26.9375 8.1325 26.9375 8.8125 C24.2975 8.4825 21.6575 8.1525 18.9375 7.8125 C16.11188373 11.60942186 14.37111092 13.99819279 14.9375 18.8125 C14.2775 18.173125 13.6175 17.53375 12.9375 16.875 C9.43230666 14.12650973 9.43230666 14.12650973 1.9375 13.8125 C1.9375 21.4025 1.9375 28.9925 1.9375 36.8125 C1.6075 36.8125 1.2775 36.8125 0.9375 36.8125 C0.9375 28.8925 0.9375 20.9725 0.9375 12.8125 C3.2475 12.8125 5.5575 12.8125 7.9375 12.8125 C7.9375 11.8225 7.9375 10.8325 7.9375 9.8125 C8.5975 9.1525 9.2575 8.4925 9.9375 7.8125 C9.2775 7.8125 8.6175 7.8125 7.9375 7.8125 C7.9375 7.1525 7.9375 6.4925 7.9375 5.8125 C4.03115621 6.94099932 1.72350526 7.89985814 -1.0625 10.8125 C-2.39326989 11.15592449 -3.72681979 11.48869874 -5.0625 11.8125 C-6.0525 12.5859375 -6.0525 12.5859375 -7.0625 13.375 C-9.0625 14.8125 -9.0625 14.8125 -13.0625 14.8125 C-13.09146822 19.24998635 -13.10928788 23.68744847 -13.125 28.125 C-13.13337891 29.38763672 -13.14175781 30.65027344 -13.15039062 31.95117188 C-13.15361328 33.15966797 -13.15683594 34.36816406 -13.16015625 35.61328125 C-13.16539307 36.72872314 -13.17062988 37.84416504 -13.17602539 38.9934082 C-13.18999254 41.89302062 -13.18999254 41.89302062 -12.0625 44.8125 C-4.88236985 46.84687021 2.56116294 47.74082197 9.9375 48.8125 C9.9375 49.1425 9.9375 49.4725 9.9375 49.8125 C6.14589703 49.87036668 2.35440689 49.90605054 -1.4375 49.9375 C-2.51773438 49.95425781 -3.59796875 49.97101563 -4.7109375 49.98828125 C-5.7421875 49.99472656 -6.7734375 50.00117188 -7.8359375 50.0078125 C-9.26558838 50.02352295 -9.26558838 50.02352295 -10.72412109 50.03955078 C-13.0625 49.8125 -13.0625 49.8125 -15.0625 47.8125 C-15.32319641 45.83911133 -15.32319641 45.83911133 -15.3371582 43.39453125 C-15.35145622 42.02300903 -15.35145622 42.02300903 -15.36604309 40.6237793 C-15.36513168 39.63418213 -15.36422028 38.64458496 -15.36328125 37.625 C-15.36756638 36.61155518 -15.3718515 35.59811035 -15.37626648 34.55395508 C-15.38201609 32.40869902 -15.38250542 30.26342346 -15.37817383 28.11816406 C-15.3750128 24.82583577 -15.39846929 21.53440465 -15.42382812 18.2421875 C-15.42610084 16.16145947 -15.42680474 14.08072902 -15.42578125 12 C-15.434991 11.01040283 -15.44420074 10.02080566 -15.45368958 9.0012207 C-15.44746078 8.08687256 -15.44123199 7.17252441 -15.43481445 6.23046875 C-15.43544388 5.42375732 -15.4360733 4.6170459 -15.4367218 3.78588867 C-15.25148201 2.80906128 -15.25148201 2.80906128 -15.0625 1.8125 C-10.34488705 -1.3325753 -5.52475026 -0.25069229 0 0 Z " fill="#195D81" transform="translate(53.0625,263.1875)"/>
<path d="M0 0 C0.33 1.98 0.66 3.96 1 6 C1.66 6 2.32 6 3 6 C2.938125 5.21625 2.87625 4.4325 2.8125 3.625 C2.874375 2.75875 2.93625 1.8925 3 1 C6 -1 6 -1 13 -1 C13 5.93 13 12.86 13 20 C5.41 20 -2.18 20 -10 20 C-10.91010992 15.4494504 -10.94071213 11.73039281 -10.5625 7.1875 C-10.51029297 6.49462891 -10.45808594 5.80175781 -10.40429688 5.08789062 C-10.27560181 3.39145563 -10.13863816 1.69565137 -10 0 C-6.34811918 -1.07174763 -3.73567172 -0.76411467 0 0 Z M5 16 C6 18 6 18 6 18 Z " fill="#EBEAEB" transform="translate(174,240)"/>
<path d="M0 0 C0.350625 0.515625 0.70125 1.03125 1.0625 1.5625 C1.3925 0.9025 1.7225 0.2425 2.0625 -0.4375 C4.38406597 -0.84479228 6.7193787 -1.18188677 9.0625 -1.4375 C9.7225 0.2125 10.3825 1.8625 11.0625 3.5625 C11.3925 2.2425 11.7225 0.9225 12.0625 -0.4375 C14.9375 -1.0625 14.9375 -1.0625 18.0625 -1.4375 C18.7225 -0.7775 19.3825 -0.1175 20.0625 0.5625 C19.93823242 2.42602539 19.93823242 2.42602539 19.41796875 4.66015625 C19.23556641 5.46130859 19.05316406 6.26246094 18.86523438 7.08789062 C18.66220703 7.92513672 18.45917969 8.76238281 18.25 9.625 C17.96286133 10.88666992 17.96286133 10.88666992 17.66992188 12.17382812 C16.21847098 18.40652902 16.21847098 18.40652902 15.0625 19.5625 C12.72952567 19.60342937 10.39544775 19.60491723 8.0625 19.5625 C7.4025 18.2425 6.7425 16.9225 6.0625 15.5625 C5.711875 16.2225 5.36125 16.8825 5 17.5625 C3.0625 19.5625 3.0625 19.5625 -0.625 19.8125 C-1.718125 19.73 -2.81125 19.6475 -3.9375 19.5625 C-6.37180815 12.98986799 -7.83859517 6.47913627 -8.9375 -0.4375 C-2.41442308 -1.79134615 -2.41442308 -1.79134615 0 0 Z " fill="#D8D7D7" transform="translate(67.9375,240.4375)"/>
<path d="M0 0 C-0.33 0.99 -0.66 1.98 -1 3 C-1.22325814 5.05893621 -1.40705759 7.12233653 -1.5625 9.1875 C-1.64628906 10.27417969 -1.73007813 11.36085938 -1.81640625 12.48046875 C-1.90728516 13.72763672 -1.90728516 13.72763672 -2 15 C-2.66 15 -3.32 15 -4 15 C-4 25.89 -4 36.78 -4 48 C3.59530542 46.91593394 3.59530542 46.91593394 6 43.6875 C7.15620364 41.05812229 7.15620364 41.05812229 7 38.3125 C7 37.549375 7 36.78625 7 36 C7.99 35.34 8.98 34.68 10 34 C10.50702517 31.87893205 10.50702517 31.87893205 10.51171875 29.4296875 C10.54716797 28.53378906 10.58261719 27.63789063 10.61914062 26.71484375 C10.64169922 25.77769531 10.66425781 24.84054687 10.6875 23.875 C10.72166016 22.93011719 10.75582031 21.98523438 10.79101562 21.01171875 C10.87364112 18.67459747 10.94273988 16.33785809 11 14 C12.32 14.33 13.64 14.66 15 15 C14.01 15 13.02 15 12 15 C12.00523682 16.02472412 12.01047363 17.04944824 12.01586914 18.10522461 C12.03391969 21.89395276 12.0454322 25.68267709 12.05493164 29.47143555 C12.05997174 31.11369464 12.06680378 32.75594923 12.07543945 34.39819336 C12.08751926 36.75375479 12.09323139 39.10925709 12.09765625 41.46484375 C12.10281754 42.20339096 12.10797882 42.94193817 12.11329651 43.7028656 C12.1134925 45.46898088 12.06194719 47.23497146 12 49 C11 50 11 50 7.91015625 50.1328125 C6.64042969 50.13023437 5.37070313 50.12765625 4.0625 50.125 C2.16177734 50.12886719 2.16177734 50.12886719 0.22265625 50.1328125 C-3 50 -3 50 -5 49 C-5.33 37.78 -5.66 26.56 -6 15 C-9.63 15 -13.26 15 -17 15 C-18.32 14.34 -19.64 13.68 -21 13 C-21 9.04 -21 5.08 -21 1 C-18.43761495 0.83138242 -15.87511576 0.66504227 -13.3125 0.5 C-12.59126953 0.45230469 -11.87003906 0.40460938 -11.12695312 0.35546875 C-7.41171286 0.11796481 -3.72305126 -0.05874637 0 0 Z " fill="#8C70A7" transform="translate(155,263)"/>
<path d="M0 0 C3.55788586 0.49415081 6.80109905 1.35732113 10 3 C12.52258282 6.5999359 12.299853 10.21688427 12.3125 14.5 C12.32925781 15.8096875 12.34601563 17.119375 12.36328125 18.46875 C11.98471083 22.14861735 11.42620587 23.33919916 9 26 C8.566875 27.2065625 8.566875 27.2065625 8.125 28.4375 C6.69288425 31.69954144 4.59870279 33.60645795 2 36 C0.93224776 34.03533587 -0.06553465 32.03144641 -1 30 C-0.67 29.34 -0.34 28.68 0 28 C-0.66 28 -1.32 28 -2 28 C-2.62297539 24.63108554 -3.19112274 21.25508968 -3.75 17.875 C-3.92660156 16.92367188 -4.10320312 15.97234375 -4.28515625 14.9921875 C-5.55589081 7.03628419 -5.55589081 7.03628419 -3.140625 3.3828125 C-1 1 -1 1 0 0 Z " fill="#47BBC1" transform="translate(72,270)"/>
<path d="M0 0 C1.98 0 3.96 0 6 0 C7.01085428 3.34386398 7.11543463 6.3748118 7.09765625 9.859375 C7.09443359 10.97441406 7.09121094 12.08945312 7.08789062 13.23828125 C7.07951172 14.39714844 7.07113281 15.55601562 7.0625 16.75 C7.05798828 17.92433594 7.05347656 19.09867187 7.04882812 20.30859375 C7.03705094 23.20578072 7.02060326 26.10286454 7 29 C6.34 28.01 5.68 27.02 5 26 C4.87625 26.7425 4.7525 27.485 4.625 28.25 C3.56872235 32.89762166 1.80901966 36.03742916 -2 39 C-5.140625 39.109375 -5.140625 39.109375 -8 39 C-7.74421622 36.10212027 -7.47099197 33.20768966 -7.1875 30.3125 C-7.08211914 29.08756836 -7.08211914 29.08756836 -6.97460938 27.83789062 C-6.487133 23.02162405 -5.5991475 20.13741846 -3 16 C-2.23510406 13.26212141 -1.7709685 10.49092215 -1.3125 7.6875 C-1.18294922 6.94693359 -1.05339844 6.20636719 -0.91992188 5.44335938 C-0.6041294 3.63047666 -0.30079417 1.81543149 0 0 Z " fill="#ACCAD8" transform="translate(159,272)"/>
<path d="M0 0 C0.66666667 2.66666667 1.33333333 5.33333333 2 8 C1.34 8 0.68 8 0 8 C0 17.24 0 26.48 0 36 C1.32 36.33 2.64 36.66 4 37 C2.125 42.875 2.125 42.875 1 44 C-1.30901696 44.15179378 -3.62367069 44.22181122 -5.9375 44.25 C-7.20464844 44.27578125 -8.47179687 44.3015625 -9.77734375 44.328125 C-10.84082031 44.21984375 -11.90429688 44.1115625 -13 44 C-13.66 43.01 -14.32 42.02 -15 41 C-14.60375977 39.04907227 -14.60375977 39.04907227 -13.69140625 36.81640625 C-13.35947266 35.98004639 -13.02753906 35.14368652 -12.68554688 34.28198242 C-12.31494141 33.38455322 -11.94433594 32.48712402 -11.5625 31.5625 C-10.81131709 29.67546649 -10.06268514 27.78741581 -9.31640625 25.8984375 C-8.9311377 24.92874023 -8.54586914 23.95904297 -8.14892578 22.95996094 C-6.31776783 18.2423751 -4.65289534 13.46991193 -3 8.6875 C-2.69779541 7.81617432 -2.39559082 6.94484863 -2.08422852 6.04711914 C-1.3869097 4.03230245 -0.69303362 2.01629468 0 0 Z " fill="#A3ADC2" transform="translate(194,269)"/>
<path d="M0 0 C3.0625 2.25 3.0625 2.25 5 5 C4.6875 7.125 4.6875 7.125 4 9 C4.99 10.485 4.99 10.485 6 12 C5.78355254 14.88596617 5.40953072 16.50144086 3.5625 18.75 C0.02217849 21.58225721 -3.64565348 21.45791407 -8 21 C-11 19.8125 -11 19.8125 -13 18 C-13.3125 15.3125 -13.3125 15.3125 -13 13 C-12.34 13 -11.68 13 -11 13 C-11.66 12.01 -12.32 11.02 -13 10 C-13.54954205 4.72439634 -13.54954205 4.72439634 -11.625 2.1875 C-8.01186306 -0.4528693 -4.34565653 -0.74639139 0 0 Z " fill="#D1CFD0" transform="translate(157,239)"/>
<path d="M0 0 C2.875 1.1875 2.875 1.1875 5 3 C5.78266149 5.46839393 6 7.42825366 6 10 C6.20625 10.78375 6.4125 11.5675 6.625 12.375 C7.06309071 15.44163499 6.80152654 16.51217764 5 19 C1.4640881 21.71993223 -2.74524102 21.40188688 -7 21 C-9.4375 20.375 -9.4375 20.375 -11 19 C-11.75 15.875 -11.75 15.875 -12 13 C-11.34 12.67 -10.68 12.34 -10 12 C-10.66 11.34 -11.32 10.68 -12 10 C-12.55979644 4.73791349 -12.55979644 4.73791349 -10.625 2.1875 C-7.07899695 -0.40380992 -4.35167821 -0.29502903 0 0 Z M-5 14 C-1 15 -1 15 -1 15 Z " fill="#D3D1D3" transform="translate(100,239)"/>
<path d="M0 0 C0.33 0 0.66 0 1 0 C1.51461383 17.1537943 1.51461383 17.1537943 -3.6875 23.8125 C-7.65995393 27.98500557 -11.28496824 29.77880162 -16.97265625 30.2421875 C-25.93003088 30.43809606 -25.93003088 30.43809606 -30 28 C-29.34 28 -28.68 28 -28 28 C-27.34 26.35 -26.68 24.7 -26 23 C-26.66 22.67 -27.32 22.34 -28 22 C-28.625 19.9375 -28.625 19.9375 -29 18 C-28.07767578 17.83564453 -28.07767578 17.83564453 -27.13671875 17.66796875 C-26.32847656 17.50941406 -25.52023438 17.35085938 -24.6875 17.1875 C-23.88699219 17.03667969 -23.08648437 16.88585937 -22.26171875 16.73046875 C-19.61955151 15.87712631 -18.5777404 15.28772358 -17 13 C-16.42052719 10.03756274 -16.42052719 10.03756274 -16.3125 6.8125 C-16.24675781 5.72582031 -16.18101563 4.63914062 -16.11328125 3.51953125 C-16.07589844 2.68808594 -16.03851563 1.85664063 -16 1 C-15.67 1 -15.34 1 -15 1 C-14.67 5.95 -14.34 10.9 -14 16 C-13.34 16 -12.68 16 -12 16 C-11.855625 16.598125 -11.71125 17.19625 -11.5625 17.8125 C-11.1127561 19.56150404 -10.57107659 21.28677023 -10 23 C-6.56603408 19.83713665 -4.50992792 17.41363545 -3 13 C-2.34 12.01 -1.68 11.02 -1 10 C-0.54398739 7.49103314 -0.54398739 7.49103314 -0.375 4.8125 C-0.30023438 3.91144531 -0.22546875 3.01039063 -0.1484375 2.08203125 C-0.09945312 1.39496094 -0.05046875 0.70789063 0 0 Z " fill="#3F99AE" transform="translate(84,282)"/>
<path d="M0 0 C3.48331435 3.01887244 4.79157144 5.56909529 6 10 C6.66 10 7.32 10 8 10 C11 14.38461538 11 14.38461538 11 17 C11.66 17 12.32 17 13 17 C14.32 19.64 15.64 22.28 17 25 C15.0604886 26.9395114 12.1879288 26.13256629 9.61132812 26.13671875 C8.3496582 26.13091797 8.3496582 26.13091797 7.0625 26.125 C6.22525391 26.12886719 5.38800781 26.13273437 4.52539062 26.13671875 C3.72423828 26.13542969 2.92308594 26.13414062 2.09765625 26.1328125 C1.36039307 26.13168457 0.62312988 26.13055664 -0.13647461 26.12939453 C-2 26 -2 26 -4 25 C-5.2890625 23.07421875 -5.2890625 23.07421875 -6.625 20.6875 C-7.07101562 19.90761719 -7.51703125 19.12773437 -7.9765625 18.32421875 C-9 16 -9 16 -9 12 C-8.01 11.67 -7.02 11.34 -6 11 C-5.67 12.65 -5.34 14.3 -5 16 C-4.34 16 -3.68 16 -3 16 C0.39366878 10.62669111 0.32712342 6.13053511 0 0 Z " fill="#A04477" transform="translate(381,287)"/>
<path d="M0 0 C0.85722656 0.06445312 1.71445313 0.12890625 2.59765625 0.1953125 C5.59755677 1.06673602 6.41445703 2.19483998 7.9375 4.875 C8.125 7.625 8.125 7.625 7.9375 9.875 C5.6275 9.875 3.3175 9.875 0.9375 9.875 C0.6075 8.555 0.2775 7.235 -0.0625 5.875 C-2.0425 6.865 -2.0425 6.865 -4.0625 7.875 C-4.0625 9.525 -4.0625 11.175 -4.0625 12.875 C-2.7425 13.205 -1.4225 13.535 -0.0625 13.875 C0.2675 12.885 0.5975 11.895 0.9375 10.875 C3.2475 10.875 5.5575 10.875 7.9375 10.875 C7.46014808 17.19991289 7.46014808 17.19991289 5.4375 19.8125 C1.60573443 21.44100037 -1.9683901 21.55370271 -6.0625 20.875 C-8.93279869 19.08106332 -10.55381638 17.89236724 -12.0625 14.875 C-12.40958476 9.58195745 -12.57601894 6.14141586 -9.0625 1.875 C-5.91319415 -0.12847997 -3.68595156 -0.34468929 0 0 Z " fill="#D2D1D1" transform="translate(201.0625,239.125)"/>
<path d="M0 0 C2.97 0 5.94 0 9 0 C10.00816056 2.58041096 11.0067111 5.16386944 12 7.75 C12.42925781 8.84441406 12.42925781 8.84441406 12.8671875 9.9609375 C13.13789062 10.66992188 13.40859375 11.37890625 13.6875 12.109375 C13.93886719 12.75874023 14.19023438 13.40810547 14.44921875 14.07714844 C15 16 15 16 15 20 C12.69 20 10.38 20 8 20 C7.67 19.01 7.34 18.02 7 17 C4.52733235 17.34444881 4.52733235 17.34444881 2 18 C1.67 18.66 1.34 19.32 1 20 C-1.64 20 -4.28 20 -7 20 C-5.50865808 12.95001999 -2.87884807 6.59278183 0 0 Z " fill="#DAD9DA" transform="translate(45,240)"/>
<path d="M0 0 C0.76183594 -0.0103125 1.52367187 -0.020625 2.30859375 -0.03125 C5.46558216 0.71285819 6.6330289 1.91588692 8.5625 4.5 C9.36222223 8.55927974 9.21760427 12.42126387 8.5625 16.5 C6.02298454 19.78643178 4.60451099 20.3263315 0.5625 21 C-3.47951099 20.3263315 -4.89798454 19.78643178 -7.4375 16.5 C-8.16610594 11.57847308 -8.58048135 6.63641373 -6.18359375 2.15625 C-4.00776562 0.09237724 -2.96509861 -0.04000133 0 0 Z M-0.4375 5.5 C-0.4375 8.8 -0.4375 12.1 -0.4375 15.5 C0.2225 15.5 0.8825 15.5 1.5625 15.5 C3.0408226 12.54335481 2.62282783 9.75770263 2.5625 6.5 C1.5725 6.17 0.5825 5.84 -0.4375 5.5 Z " fill="#D1D0D1" transform="translate(357.4375,314.5)"/>
<path d="M0 0 C0.86625 -0.01933594 1.7325 -0.03867187 2.625 -0.05859375 C5 0.4375 5 0.4375 6.82421875 2.26953125 C8.48121792 5.3247955 7.92603266 7.16076906 7 10.4375 C6.34 11.0975 5.68 11.7575 5 12.4375 C5.99 12.7675 6.98 13.0975 8 13.4375 C8 15.4175 8 17.3975 8 19.4375 C3.05 19.7675 -1.9 20.0975 -7 20.4375 C-8 15.4375 -8 15.4375 -7.00390625 13.63671875 C-5.66927083 12.23697917 -4.33463542 10.83723958 -3 9.4375 C-4.65 9.1075 -6.3 8.7775 -8 8.4375 C-8.36492591 3.93674717 -8.36492591 3.93674717 -6.80078125 1.796875 C-4.43968656 0.0145302 -2.93594023 0.00436896 0 0 Z M-1 5.4375 C-1.33 6.4275 -1.66 7.4175 -2 8.4375 C-1.34 8.4375 -0.68 8.4375 0 8.4375 C-0.33 7.4475 -0.66 6.4575 -1 5.4375 Z " fill="#D5D4D5" transform="translate(341,314.5625)"/>
<path d="M0 0 C0.7734375 -0.00515625 1.546875 -0.0103125 2.34375 -0.015625 C4.5 0.25 4.5 0.25 7.5 2.25 C7.89507893 6.59586828 7.95331002 8.57003497 5.5 12.25 C6.16 12.58 6.82 12.91 7.5 13.25 C7.5 15.23 7.5 17.21 7.5 19.25 C1.99983036 20.55267176 -2.97032059 19.96033431 -8.5 19.25 C-8.3615024 16.27230154 -8.18881566 14.03173508 -6.16796875 11.73828125 C-2.05999284 8.25 -2.05999284 8.25 0.5 8.25 C0.5 7.59 0.5 6.93 0.5 6.25 C-0.16 5.92 -0.82 5.59 -1.5 5.25 C-1.83 6.24 -2.16 7.23 -2.5 8.25 C-4.48 8.25 -6.46 8.25 -8.5 8.25 C-8.1875 5.375 -8.1875 5.375 -7.5 2.25 C-4.377998 0.16866533 -3.56733011 -0.0237822 0 0 Z " fill="#CDCCCC" transform="translate(375.5,314.75)"/>
<path d="M0 0 C2.16752082 2.16752082 2.69137536 3.50414252 3.69140625 6.359375 C3.99626953 7.22820312 4.30113281 8.09703125 4.61523438 8.9921875 C4.92783203 9.90226562 5.24042969 10.81234375 5.5625 11.75 C5.87896484 12.64460938 6.19542969 13.53921875 6.52148438 14.4609375 C8.08393004 18.95918871 9.42565736 23.24790473 10 28 C6.79226388 29.06924537 4.37015182 29.16684956 1 29.1875 C-0.051875 29.20167969 -1.10375 29.21585937 -2.1875 29.23046875 C-5 29 -5 29 -8 27 C-8.33 25.35 -8.66 23.7 -9 22 C-13.95 22 -18.9 22 -24 22 C-24 21.67 -24 21.34 -24 21 C-15.585 20.505 -15.585 20.505 -7 20 C-7 20.66 -7 21.32 -7 22 C-5.35 22 -3.7 22 -2 22 C-1.66395648 19.08362234 -1.33106414 16.16694348 -1 13.25 C-0.90460938 12.425 -0.80921875 11.6 -0.7109375 10.75 C-0.62070313 9.95078125 -0.53046875 9.1515625 -0.4375 8.328125 C-0.35371094 7.5949707 -0.26992187 6.86181641 -0.18359375 6.10644531 C-0.00677521 4.07773478 0 2.03640154 0 0 Z " fill="#B35A9A" transform="translate(222,284)"/>
<path d="M0 0 C1.47968324 0.14049518 2.95874516 0.28754826 4.4375 0.4375 C5.67306641 0.55931641 5.67306641 0.55931641 6.93359375 0.68359375 C9 1 9 1 10 2 C10.2253331 4.0279979 10.44767185 6.05674874 10.62109375 8.08984375 C10.86222227 10.2328948 10.86222227 10.2328948 13 12 C12.625 14.125 12.625 14.125 12 16 C11.34 16 10.68 16 10 16 C9.67 17.32 9.34 18.64 9 20 C7.35 19.67 5.7 19.34 4 19 C4 18.01 4 17.02 4 16 C1.03 16 -1.94 16 -5 16 C-5.7013076 9.40770855 -3.49602186 5.50623443 0 0 Z M2 8 C2 8.66 2 9.32 2 10 C2.66 9.67 3.32 9.34 4 9 C3.34 8.67 2.68 8.34 2 8 Z " fill="#D4D3D4" transform="translate(389,315)"/>
<path d="M0 0 C5.75 -0.125 5.75 -0.125 8 1 C8 6.61 8 12.22 8 18 C6.02 18 4.04 18 2 18 C0.61061923 19.96147874 -0.7260411 21.96166576 -2 24 C-3.32 24 -4.64 24 -6 24 C-6.33854043 17.73700212 -5.37166065 13.26890429 -3 7.5 C-2.71382813 6.77296875 -2.42765625 6.0459375 -2.1328125 5.296875 C-1.43395426 3.52643412 -0.71868368 1.76248618 0 0 Z " fill="#7ACAC4" transform="translate(102,264)"/>
<path d="M0 0 C5.33333333 0 10.66666667 0 16 0 C16 3.51716303 15.17554415 4.37121748 13 7 C13.66 7.928125 14.32 8.85625 15 9.8125 C17 13 17 13 17 16 C10.375 16.25 10.375 16.25 7 14 C6.67 14.66 6.34 15.32 6 16 C3.69 16 1.38 16 -1 16 C-0.52636331 13.23711929 0.0268059 10.94074486 1.1875 8.375 C1.455625 7.59125 1.72375 6.8075 2 6 C1.34 5.01 0.68 4.02 0 3 C0 2.01 0 1.02 0 0 Z " fill="#CAC9CA" transform="translate(117,244)"/>
<path d="M0 0 C0.39704417 4.49983387 -0.94473645 7.05389398 -3 11 C-3.37668344 12.65740715 -3.72057545 14.32345271 -4 16 C-4.33 16.66 -4.66 17.32 -5 18 C-9.86930205 16.62093194 -11.56408806 14.31789307 -14.25 10.125 C-14.93578125 9.07570313 -15.6215625 8.02640625 -16.328125 6.9453125 C-17.71106411 4.50901324 -18.55184059 2.72849996 -19 0 C-12.72500803 -1.06808374 -6.13103517 -2.04367839 0 0 Z " fill="#AC7390" transform="translate(309,264)"/>
<path d="M0 0 C2.54508691 2.98771072 2.24176941 6.21227922 2 10 C0.16949153 15.49152542 0.16949153 15.49152542 -2 18 C-5.11537914 18.45374971 -7.82764183 18.22988103 -11 18 C-11 12.39 -11 6.78 -11 1 C-11.66 0.67 -12.32 0.34 -13 0 C-8.38819892 -1.01234658 -4.60497127 -1.15124282 0 0 Z " fill="#7585B0" transform="translate(121,264)"/>
<path d="M0 0 C4.2649755 4.2649755 6.25631036 11.47016012 6.3125 17.4375 C6.07794828 20.11138962 5.84515306 22.46454083 5 25 C2.23735711 25.59732819 -0.16032769 26 -3 26 C-3.66 24.02 -4.32 22.04 -5 20 C-5.66 20.33 -6.32 20.66 -7 21 C-7.625 18.6875 -7.625 18.6875 -8 16 C-7.34 15.01 -6.68 14.02 -6 13 C-5.01 13 -4.02 13 -3 13 C-3 11.35 -3 9.7 -3 8 C-2.01 7.67 -1.02 7.34 0 7 C-0.2784375 5.824375 -0.2784375 5.824375 -0.5625 4.625 C-1 2 -1 2 0 0 Z " fill="#BBC0C8" transform="translate(215,265)"/>
<path d="M0 0 C1.53166168 4.08443115 0.63081652 7.79455657 0 12 C0.99 12.33 1.98 12.66 3 13 C3.31696526 17.6488238 2.81261611 19.39985138 0 23 C-0.72045367 26.15118325 -0.72045367 26.15118325 -1 29 C1.31 29 3.62 29 6 29 C6 29.33 6 29.66 6 30 C3.70890403 30.08075665 1.41700733 30.13907731 -0.875 30.1875 C-2.78925781 30.23970703 -2.78925781 30.23970703 -4.7421875 30.29296875 C-5.81726563 30.19628906 -6.89234375 30.09960938 -8 30 C-8.66 29.01 -9.32 28.02 -10 27 C-9.52441406 24.8269043 -9.52441406 24.8269043 -8.515625 22.32421875 C-8.15726563 21.41349609 -7.79890625 20.50277344 -7.4296875 19.56445312 C-7.04039062 18.61505859 -6.65109375 17.66566406 -6.25 16.6875 C-5.5042816 14.8167754 -4.75946586 12.94569069 -4.015625 11.07421875 C-3.66306641 10.19685059 -3.31050781 9.31948242 -2.94726562 8.41552734 C-1.85963295 5.64206402 -0.89476963 2.84136951 0 0 Z " fill="#8D71A4" transform="translate(189,283)"/>
<path d="M0 0 C2.5 0.5 2.5 0.5 4.125 1.9375 C6.55825467 6.47220189 8.5 11.32010114 8.5 16.5 C3.55 16.5 -1.4 16.5 -6.5 16.5 C-6.17 15.51 -5.84 14.52 -5.5 13.5 C-5.50545025 12.02025663 -5.55023457 10.54036341 -5.625 9.0625 C-5.64902351 6.11241321 -5.57229195 4.65599842 -4.3125 1.9375 C-2.5 0.5 -2.5 0.5 0 0 Z " fill="#93BCCC" transform="translate(129.5,295.5)"/>
<path d="M0 0 C3.29150125 -0.08685287 6.5827096 -0.14033895 9.875 -0.1875 C10.81214844 -0.21263672 11.74929688 -0.23777344 12.71484375 -0.26367188 C14.05869141 -0.27817383 14.05869141 -0.27817383 15.4296875 -0.29296875 C16.25710449 -0.3086792 17.08452148 -0.32438965 17.93701172 -0.34057617 C18.61779785 -0.22818604 19.29858398 -0.1157959 20 0 C22 3 22 3 22 7 C21.38125 6.649375 20.7625 6.29875 20.125 5.9375 C19.42375 5.628125 18.7225 5.31875 18 5 C17.01 5.495 17.01 5.495 16 6 C15.67 4.35 15.34 2.7 15 1 C14.34 1 13.68 1 13 1 C13 3.31 13 5.62 13 8 C13.66 8.33 14.32 8.66 15 9 C13.71034824 10.37562854 12.37310707 11.70766393 11 13 C10.34 13 9.68 13 9 13 C9 12.34 9 11.68 9 11 C8.01 11 7.02 11 6 11 C4.39453125 9.1015625 4.39453125 9.1015625 2.8125 6.625 C2.01779297 5.40683594 2.01779297 5.40683594 1.20703125 4.1640625 C0 2 0 2 0 0 Z " fill="#CF6B8F" transform="translate(345,264)"/>
<path d="M0 0 C0.33 0.66 0.66 1.32 1 2 C1.66 2 2.32 2 3 2 C6 6.38461538 6 6.38461538 6 9 C6.66 9 7.32 9 8 9 C9.32 11.64 10.64 14.28 12 17 C10.0604886 18.9395114 7.1879288 18.13256629 4.61132812 18.13671875 C3.3496582 18.13091797 3.3496582 18.13091797 2.0625 18.125 C1.22525391 18.12886719 0.38800781 18.13273437 -0.47460938 18.13671875 C-1.27576172 18.13542969 -2.07691406 18.13414062 -2.90234375 18.1328125 C-3.63960693 18.13168457 -4.37687012 18.13055664 -5.13647461 18.12939453 C-7 18 -7 18 -9 17 C-9 16.34 -9 15.68 -9 15 C-7.02 14.67 -5.04 14.34 -3 14 C-2.814375 12.7934375 -2.814375 12.7934375 -2.625 11.5625 C-2.41875 10.716875 -2.2125 9.87125 -2 9 C-1.34 8.67 -0.68 8.34 0 8 C0.66 8.33 1.32 8.66 2 9 C1.41196203 5.97580475 0.77321882 2.98241547 0 0 Z " fill="#7D3F6A" transform="translate(386,295)"/>
<path d="M0 0 C2.4375 1.4375 2.4375 1.4375 4 3 C4 3.66 4 4.32 4 5 C1.36 4.67 -1.28 4.34 -4 4 C-6.82561627 7.79692186 -8.56638908 10.18569279 -8 15 C-8.66 14.360625 -9.32 13.72125 -10 13.0625 C-13.50519334 10.31400973 -13.50519334 10.31400973 -21 10 C-21 17.59 -21 25.18 -21 33 C-21.33 33 -21.66 33 -22 33 C-22 25.08 -22 17.16 -22 9 C-19.69 9 -17.38 9 -15 9 C-15 8.01 -15 7.02 -15 6 C-14.34 5.34 -13.68 4.68 -13 4 C-13.66 4 -14.32 4 -15 4 C-15 3.34 -15 2.68 -15 2 C-9.48934734 -0.41695292 -6.02311172 -1.621607 0 0 Z " fill="#1C777A" transform="translate(76,267)"/>
<path d="M0 0 C1.60407328 -0.02708567 3.2082785 -0.04643483 4.8125 -0.0625 C5.70582031 -0.07410156 6.59914062 -0.08570313 7.51953125 -0.09765625 C10 0 10 0 13 1 C13 5.29 13 9.58 13 14 C5.375 15.25 5.375 15.25 2 13 C2.33 9.04 2.66 5.08 3 1 C2.01 0.67 1.02 0.34 0 0 Z " fill="#8A7AB4" transform="translate(169,263)"/>
<path d="M0 0 C0.33 0.66 0.66 1.32 1 2 C1.66 2.33 2.32 2.66 3 3 C3.99 4.485 3.99 4.485 5 6 C5.66 6.66 6.32 7.32 7 8 C7.125 10.625 7.125 10.625 7 13 C9.64 12.67 12.28 12.34 15 12 C14.95875 10.88625 14.9175 9.7725 14.875 8.625 C15 5 15 5 17 3 C18.58869702 11.08163265 18.58869702 11.08163265 16.4375 14.4375 C13.70316582 16.19027832 11.12631859 17.14736766 8 18 C7.67 17.01 7.34 16.02 7 15 C6.34 15 5.68 15 5 15 C5 15.66 5 16.32 5 17 C2.03 17 -0.94 17 -4 17 C-4.22786458 14.78645833 -4.45572917 12.57291667 -4.68359375 10.359375 C-4.93490397 8.00462654 -4.93490397 8.00462654 -5.66015625 5.828125 C-5.77230469 5.22484375 -5.88445312 4.6215625 -6 4 C-5.34 3.34 -4.68 2.68 -4 2 C-2.68 2 -1.36 2 0 2 C0 1.34 0 0.68 0 0 Z M0 4 C-2.70844881 9.73290915 -2.70844881 9.73290915 -3 16 C-0.69 16 1.62 16 4 16 C3.49202991 11.6822542 2.80317221 7.96697886 1 4 C0.67 4 0.34 4 0 4 Z " fill="#D497CB" transform="translate(205,278)"/>
<path d="M0 0 C0.33 0.99 0.66 1.98 1 3 C3.01508358 3.73323796 3.01508358 3.73323796 5 4 C4.67 5.65 4.34 7.3 4 9 C2.35 9 0.7 9 -1 9 C-1.38218767 10.65614657 -1.71395102 12.32457024 -2 14 C-0.81575674 15.41577477 -0.81575674 15.41577477 2.5625 15.0625 C4.2640625 15.0315625 4.2640625 15.0315625 6 15 C6.33 13.35 6.66 11.7 7 10 C8.32 10.33 9.64 10.66 11 11 C9.92598892 13.91517292 9.22189824 15.77810176 7 18 C4.0906442 18.14517744 1.280054 18.18630796 -1.625 18.125 C-2.42679687 18.11597656 -3.22859375 18.10695313 -4.0546875 18.09765625 C-6.03658523 18.07406223 -8.01832981 18.03819065 -10 18 C-10 13.96654781 -8.39830718 12.30074495 -6.125 9 C-5.40570313 7.948125 -4.68640625 6.89625 -3.9453125 5.8125 C-3.30335938 4.884375 -2.66140625 3.95625 -2 3 C-1.34 2.01 -0.68 1.02 0 0 Z " fill="#904068" transform="translate(354,295)"/>
<path d="M0 0 C3 1 3 1 4.203125 2.99609375 C4.54859375 3.80175781 4.8940625 4.60742188 5.25 5.4375 C5.60578125 6.24058594 5.9615625 7.04367187 6.328125 7.87109375 C7 10 7 10 6 12 C4.35 12 2.7 12 1 12 C-1.00811272 16.14173249 -1.08603928 19.43991791 -1 24 C-1.33 24.66 -1.66 25.32 -2 26 C2.29 26.33 6.58 26.66 11 27 C11 27.33 11 27.66 11 28 C8.54137599 28.05383848 6.0839245 28.09359038 3.625 28.125 C2.57699219 28.15013672 2.57699219 28.15013672 1.5078125 28.17578125 C-0.32897486 28.19344267 -2.16601963 28.10303261 -4 28 C-6.70078753 25.29921247 -6.29894358 23.75964828 -6.3125 20 C-6.32925781 18.9275 -6.34601563 17.855 -6.36328125 16.75 C-6.24339844 15.8425 -6.12351562 14.935 -6 14 C-5.01 13.34 -4.02 12.68 -3 12 C-1.01340781 8.13718186 -0.50404943 4.2844202 0 0 Z " fill="#7892A6" transform="translate(126,285)"/>
<path d="M0 0 C0.88429688 -0.02578125 1.76859375 -0.0515625 2.6796875 -0.078125 C5.125 0.25 5.125 0.25 6.93359375 1.34765625 C8.72327724 4.20528202 8.41139485 6.60803997 8.3125 9.9375 C8.28542969 11.11699219 8.25835937 12.29648437 8.23046875 13.51171875 C8.19566406 14.41535156 8.16085938 15.31898438 8.125 16.25 C6.41659719 14.61587557 5.19046953 13.38093906 4.125 11.25 C2.805 11.25 1.485 11.25 0.125 11.25 C-1.625 9.25 -1.625 9.25 -2.875 7.25 C-3.865 7.745 -3.865 7.745 -4.875 8.25 C-4.875 7.59 -4.875 6.93 -4.875 6.25 C-5.535 6.25 -6.195 6.25 -6.875 6.25 C-5.88574842 0.7384555 -5.64958115 0.09825359 0 0 Z " fill="#36DAC7" transform="translate(75.875,275.75)"/>
<path d="M0 0 C0.02686553 1.97909398 0.04633375 3.95828971 0.0625 5.9375 C0.07410156 7.03964844 0.08570313 8.14179688 0.09765625 9.27734375 C0 12 0 12 -1 13 C-2.66617115 13.04063832 -4.33388095 13.042721 -6 13 C-6.33 11.35 -6.66 9.7 -7 8 C-7.61875 8.185625 -8.2375 8.37125 -8.875 8.5625 C-11 9 -11 9 -13 8 C-12.7323244 4.69866765 -12.4396165 3.37496702 -9.875 1.1875 C-6.41554399 -0.24140574 -3.70840602 -0.21814153 0 0 Z " fill="#A4B8CB" transform="translate(172,264)"/>
<path d="M0 0 C1.32 0.33 2.64 0.66 4 1 C3.01 1 2.02 1 1 1 C1.00785522 2.53708618 1.00785522 2.53708618 1.01586914 4.10522461 C1.03391969 7.89395276 1.0454322 11.68267709 1.05493164 15.47143555 C1.05997174 17.11369464 1.06680378 18.75594923 1.07543945 20.39819336 C1.08751926 22.75375479 1.09323139 25.10925709 1.09765625 27.46484375 C1.10281754 28.20339096 1.10797882 28.94193817 1.11329651 29.7028656 C1.1134925 31.46898088 1.06194719 33.23497146 1 35 C0 36 0 36 -3.16015625 36.09765625 C-4.44792969 36.08605469 -5.73570312 36.07445312 -7.0625 36.0625 C-8.35285156 36.05347656 -9.64320313 36.04445313 -10.97265625 36.03515625 C-11.97167969 36.02355469 -12.97070312 36.01195312 -14 36 C-14.33 35.34 -14.66 34.68 -15 34 C-13.741875 33.773125 -12.48375 33.54625 -11.1875 33.3125 C-8.04772694 32.52338889 -7.19093338 32.22076672 -5 29.6875 C-3.84379636 27.05812229 -3.84379636 27.05812229 -4 24.3125 C-4 23.549375 -4 22.78625 -4 22 C-3.01 21.34 -2.02 20.68 -1 20 C-0.49297483 17.87893205 -0.49297483 17.87893205 -0.48828125 15.4296875 C-0.45283203 14.53378906 -0.41738281 13.63789063 -0.38085938 12.71484375 C-0.35830078 11.77769531 -0.33574219 10.84054687 -0.3125 9.875 C-0.27833984 8.93011719 -0.24417969 7.98523438 -0.20898438 7.01171875 C-0.12635888 4.67459747 -0.05726012 2.33785809 0 0 Z " fill="#85889E" transform="translate(166,277)"/>
<path d="M0 0 C0.66 0.33 1.32 0.66 2 1 C2 3.97 2 6.94 2 10 C4.97 10 7.94 10 11 10 C7.10344025 11.94827987 6.04436879 12 2 12 C-0.1564239 13.86721349 -0.1564239 13.86721349 -0.875 16.5 C-2.2048343 19.45518734 -3.1304431 19.74529496 -6 21 C-5.93981939 18.58073961 -5.85277783 16.16751328 -5.75 13.75 C-5.73582031 13.06808594 -5.72164062 12.38617188 -5.70703125 11.68359375 C-5.53810176 8.20364621 -5.28827412 6.34275112 -3.015625 3.640625 C-2.35046875 3.09921875 -1.6853125 2.5578125 -1 2 C-0.67 1.34 -0.34 0.68 0 0 Z " fill="#C8A1CF" transform="translate(199,285)"/>
<path d="M0 0 C0.99 0.66 1.98 1.32 3 2 C2.01 3.485 2.01 3.485 1 5 C0.6523888 7.00954865 0.6523888 7.00954865 0.62109375 9.1953125 C0.58693359 9.99324219 0.55277344 10.79117187 0.51757812 11.61328125 C0.49115234 12.44214844 0.46472656 13.27101563 0.4375 14.125 C0.1205036 22.8794964 0.1205036 22.8794964 -1 24 C-3.53049402 24.07313567 -6.03304837 24.09247527 -8.5625 24.0625 C-9.27341797 24.05798828 -9.98433594 24.05347656 -10.71679688 24.04882812 C-12.47790013 24.03700864 -14.23896036 24.01907263 -16 24 C-17.1482685 21.703463 -17.11561175 20.41686833 -17.09765625 17.8671875 C-17.09443359 17.06152344 -17.09121094 16.25585938 -17.08789062 15.42578125 C-17.07951172 14.58402344 -17.07113281 13.74226563 -17.0625 12.875 C-17.05798828 12.02550781 -17.05347656 11.17601562 -17.04882812 10.30078125 C-17.03702874 8.20049091 -17.01909306 6.1002367 -17 4 C-16.67 4 -16.34 4 -16 4 C-15.95101563 4.74765625 -15.90203125 5.4953125 -15.8515625 6.265625 C-15.77679688 7.25046875 -15.70203125 8.2353125 -15.625 9.25 C-15.55539062 10.22453125 -15.48578125 11.1990625 -15.4140625 12.203125 C-15.01116674 14.92457181 -14.26239662 16.5983674 -13 19 C-13 19.99 -13 20.98 -13 22 C-11.54096742 21.69078116 -10.08279278 21.37751201 -8.625 21.0625 C-7.81289063 20.88847656 -7.00078125 20.71445312 -6.1640625 20.53515625 C-3.970537 20.07669307 -3.970537 20.07669307 -2 19 C-1.71243703 16.3496774 -1.53226891 13.78315241 -1.4375 11.125 C-1.11634905 3.34904714 -1.11634905 3.34904714 0 0 Z " fill="#843959" transform="translate(325,289)"/>
<path d="M0 0 C-0.33 2.31 -0.66 4.62 -1 7 C-1.99 7.33 -2.98 7.66 -4 8 C-3.67 6.02 -3.34 4.04 -3 2 C-5.15811388 2.94729537 -5.15811388 2.94729537 -7 5 C-7.99 5.495 -7.99 5.495 -9 6 C-9.62669199 8.16467461 -10.15427374 10.35864524 -10.625 12.5625 C-10.88539063 13.76003906 -11.14578125 14.95757812 -11.4140625 16.19140625 C-11.60742188 17.11824219 -11.80078125 18.04507812 -12 19 C-12.33 19 -12.66 19 -13 19 C-13 12.73 -13 6.46 -13 0 C-3.71428571 -1.85714286 -3.71428571 -1.85714286 0 0 Z " fill="#D46B9D" transform="translate(251,265)"/>
<path d="M0 0 C0.66 0 1.32 0 2 0 C1.60444714 2.29540523 1.18286568 4.58633783 0.75 6.875 C0.40195312 8.78925781 0.40195312 8.78925781 0.046875 10.7421875 C-1 14 -1 14 -3.109375 15.4453125 C-3.73328125 15.62835938 -4.3571875 15.81140625 -5 16 C-5.33 15.34 -5.66 14.68 -6 14 C-6.99 14.495 -6.99 14.495 -8 15 C-8.99 14.01 -9.98 13.02 -11 12 C-10.01 9.69 -9.02 7.38 -8 5 C-7.67 5.66 -7.34 6.32 -7 7 C-6.34 7 -5.68 7 -5 7 C-5 6.34 -5 5.68 -5 5 C-4.01 5 -3.02 5 -2 5 C-1.855625 4.360625 -1.71125 3.72125 -1.5625 3.0625 C-1 1 -1 1 0 0 Z " fill="#DF5588" transform="translate(382,265)"/>
<path d="M0 0 C0.99 0.33 1.98 0.66 3 1 C3.23642989 2.92521481 3.47104411 4.85067439 3.6953125 6.77734375 C3.96482866 8.74342957 4.37847306 10.6885721 4.8125 12.625 C5.05481266 16.98662791 3.79091904 18.73063769 1 22 C0.34 22 -0.32 22 -1 22 C-1 3.5 -1 3.5 0 0 Z " fill="#C0CADD" transform="translate(195,269)"/>
<path d="M0 0 C0.33 0 0.66 0 1 0 C1.30081833 10.02727783 1.47809479 17.78564499 -5.3671875 25.65234375 C-7.22414099 27.18499675 -8.64862579 27.59792519 -11 28 C-11 26.68 -11 25.36 -11 24 C-10.34 24 -9.68 24 -9 24 C-8.71125 23.38125 -8.4225 22.7625 -8.125 22.125 C-7 20 -7 20 -5 18 C-4.31867549 16.33927151 -3.65257873 14.672233 -3 13 C-2.34 12.01 -1.68 11.02 -1 10 C-0.54398739 7.49103314 -0.54398739 7.49103314 -0.375 4.8125 C-0.30023438 3.91144531 -0.22546875 3.01039063 -0.1484375 2.08203125 C-0.09945312 1.39496094 -0.05046875 0.70789063 0 0 Z " fill="#548498" transform="translate(84,282)"/>
<path d="M0 0 C3.55726128 0.49406407 6.87031256 1.22369091 10 3 C11.3125 6.125 11.3125 6.125 12 9 C11.01 9.33 10.02 9.66 9 10 C9 8.68 9 7.36 9 6 C5.7 6.33 2.4 6.66 -1 7 C-1.66 8.98 -2.32 10.96 -3 13 C-3.33 13 -3.66 13 -4 13 C-4.75 10.375 -4.75 10.375 -5 7 C-3.51571399 4.37776138 -2.1352735 2.1352735 0 0 Z " fill="#2CC7BA" transform="translate(72,270)"/>
<path d="M0 0 C5.37305699 -0.35233161 5.37305699 -0.35233161 8 0 C10 2 10 2 11 4 C10.34 4.66 9.68 5.32 9 6 C8.01 6 7.02 6 6 6 C5.7525 6.639375 5.505 7.27875 5.25 7.9375 C4 10 4 10 0 11 C0 7.37 0 3.74 0 0 Z " fill="#69ABB9" transform="translate(110,265)"/>
<path d="M0 0 C2.31 0 4.62 0 7 0 C7 6.93 7 13.86 7 21 C3.349375 21.0309375 3.349375 21.0309375 -0.375 21.0625 C-1.52234619 21.07615601 -1.52234619 21.07615601 -2.69287109 21.09008789 C-7.77777778 21.11111111 -7.77777778 21.11111111 -10 20 C-10 17.03 -10 14.06 -10 11 C-8 14 -8 14 -7.125 16.125 C-6.15042479 18.20076457 -6.15042479 18.20076457 -3.875 18.75 C-3.25625 18.8325 -2.6375 18.915 -2 19 C-1.67 18.01 -1.34 17.02 -1 16 C-0.34 16 0.32 16 1 16 C1 16.99 1 17.98 1 19 C2.65 19 4.3 19 6 19 C6 13.06 6 7.12 6 1 C4.02 1 2.04 1 0 1 C0 0.67 0 0.34 0 0 Z M-1 17 C0 19 0 19 0 19 Z " fill="#A2A0A1" transform="translate(180,239)"/>
<path d="M0 0 C0.66 0 1.32 0 2 0 C3.01085428 3.34386398 3.11543463 6.3748118 3.09765625 9.859375 C3.09443359 10.97441406 3.09121094 12.08945312 3.08789062 13.23828125 C3.07951172 14.39714844 3.07113281 15.55601562 3.0625 16.75 C3.05798828 17.92433594 3.05347656 19.09867187 3.04882812 20.30859375 C3.03705094 23.20578072 3.02060326 26.10286454 3 29 C2.34 28.01 1.68 27.02 1 26 C0.34 26 -0.32 26 -1 26 C-0.37802877 19.66118686 0.28542887 13.32905858 1 7 C0.34 7 -0.32 7 -1 7 C-0.67 4.69 -0.34 2.38 0 0 Z " fill="#B3C4D3" transform="translate(163,272)"/>
<path d="M0 0 C2.97 0 5.94 0 9 0 C8.05638599 3.77445603 7.09747937 5.62492346 4.9375 8.75 C4.38964844 9.54921875 3.84179688 10.3484375 3.27734375 11.171875 C2.85582031 11.77515625 2.43429687 12.3784375 2 13 C-0.80390987 10.19609013 -0.66520791 7.88358829 -1 4 C-0.67 2.68 -0.34 1.36 0 0 Z " fill="#B24971" transform="translate(387,264)"/>
<path d="M0 0 C0 2.31 0 4.62 0 7 C-0.99 7.495 -0.99 7.495 -2 8 C-2.65555119 10.52733235 -2.65555119 10.52733235 -3 13 C-4.98 13.66 -6.96 14.32 -9 15 C-10.13643966 11.59068103 -9.86747764 10.99664544 -8.5625 7.8125 C-8.27503906 7.09707031 -7.98757812 6.38164062 -7.69140625 5.64453125 C-7.46324219 5.10183594 -7.23507813 4.55914062 -7 4 C-6.01 4 -5.02 4 -4 4 C-4 3.01 -4 2.02 -4 1 C-2 0 -2 0 0 0 Z " fill="#BCD1D5" transform="translate(215,265)"/>
<path d="M0 0 C2.35418843 2.35418843 2.99608031 4.25583671 4.125 7.375 C4.47820312 8.33148438 4.83140625 9.28796875 5.1953125 10.2734375 C6 13 6 13 6 17 C2.71480525 18.09506492 0.26336585 18.09960608 -3.1875 18.0625 C-4.81751953 18.04896484 -4.81751953 18.04896484 -6.48046875 18.03515625 C-7.31191406 18.02355469 -8.14335937 18.01195312 -9 18 C-9 17.67 -9 17.34 -9 17 C-5.7 16.67 -2.4 16.34 1 16 C1 15.01 1 14.02 1 13 C0.34 12.67 -0.32 12.34 -1 12 C-0.73958333 10.046875 -0.47916667 8.09375 -0.21875 6.140625 C0.06777357 3.69541605 0.06777357 3.69541605 0 0 Z " fill="#7C446F" transform="translate(226,295)"/>
<path d="M0 0 C1.98 0 3.96 0 6 0 C6.36630156 3.93774177 6.30233203 5.56539771 4 8.875 C3.34 9.57625 2.68 10.2775 2 11 C1.34 10.67 0.68 10.34 0 10 C-0.33 10 -0.66 10 -1 10 C-1.99 10 -2.98 10 -4 10 C-3.42415568 7.61435923 -2.77772405 5.33317216 -2 3 C-1.34 3 -0.68 3 0 3 C0 2.01 0 1.02 0 0 Z " fill="#88EED9" transform="translate(103,266)"/>
<path d="M0 0 C0.66 0 1.32 0 2 0 C1.67 2.97 1.34 5.94 1 9 C-1.76264289 9.59732819 -4.16032769 10 -7 10 C-7.66 7.36 -8.32 4.72 -9 2 C-6.16032769 2 -3.76264289 2.40267181 -1 3 C-0.67 2.01 -0.34 1.02 0 0 Z " fill="#D6B5D7" transform="translate(219,281)"/>
<path d="M0 0 C1.60875 0.5259375 1.60875 0.5259375 3.25 1.0625 C6.8303845 1.95759613 7.70671925 1.94093736 11 1 C11.99 1.66 12.98 2.32 14 3 C14 3.66 14 4.32 14 5 C11.30335792 6.34832104 9.13412479 6.16910682 6.125 6.1875 C5.07570313 6.20167969 4.02640625 6.21585937 2.9453125 6.23046875 C0.06452929 6.00504937 -1.56240208 5.48964317 -4 4 C-3.34 4 -2.68 4 -2 4 C-1.34 2.68 -0.68 1.36 0 0 Z " fill="#4B8FAD" transform="translate(58,306)"/>
<path d="M0 0 C0.33 0.66 0.66 1.32 1 2 C1.66 2.33 2.32 2.66 3 3 C3 4.98 3 6.96 3 9 C2.01 8.01 1.02 7.02 0 6 C-0.99 9.3 -1.98 12.6 -3 16 C-0.69 16 1.62 16 4 16 C4.33 15.34 4.66 14.68 5 14 C5 14.99 5 15.98 5 17 C2.03 17 -0.94 17 -4 17 C-4.22786458 14.78645833 -4.45572917 12.57291667 -4.68359375 10.359375 C-4.93490397 8.00462654 -4.93490397 8.00462654 -5.66015625 5.828125 C-5.77230469 5.22484375 -5.88445312 4.6215625 -6 4 C-5.34 3.34 -4.68 2.68 -4 2 C-2.68 2 -1.36 2 0 2 C0 1.34 0 0.68 0 0 Z " fill="#9E8B9F" transform="translate(205,278)"/>
<path d="M0 0 C0.33 0.66 0.66 1.32 1 2 C0.67 2.99 0.34 3.98 0 5 C-0.99 5 -1.98 5 -3 5 C-3.33 6.32 -3.66 7.64 -4 9 C-4.66 9 -5.32 9 -6 9 C-6 9.66 -6 10.32 -6 11 C-9.3 11.33 -12.6 11.66 -16 12 C-16.33 10.68 -16.66 9.36 -17 8 C-15.9275 7.896875 -14.855 7.79375 -13.75 7.6875 C-10.02565909 7.00470417 -8.76898184 6.38705331 -6 4 C-4.66666667 3.33333333 -3.33333333 2.66666667 -2 2 C-1.34 1.34 -0.68 0.68 0 0 Z " fill="#167E98" transform="translate(56,269)"/>
<path d="M0 0 C0.99 1.485 0.99 1.485 2 3 C9.1929916 5.00460422 16.61881032 5.92761695 24 7 C24 7.33 24 7.66 24 8 C20.18751574 8.02887236 16.3750593 8.04675492 12.5625 8.0625 C11.47388672 8.07087891 10.38527344 8.07925781 9.26367188 8.08789062 C8.22919922 8.09111328 7.19472656 8.09433594 6.12890625 8.09765625 C4.69140015 8.10551147 4.69140015 8.10551147 3.22485352 8.11352539 C1 8 1 8 0 7 C-0.04092937 4.66702567 -0.04241723 2.33294775 0 0 Z " fill="#367281" transform="translate(39,305)"/>
<path d="M0 0 C2.64 0.99 5.28 1.98 8 3 C7.34 4.98 6.68 6.96 6 9 C3.36 9 0.72 9 -2 9 C-2.25 3.375 -2.25 3.375 0 0 Z " fill="#A377B3" transform="translate(190,303)"/>
<path d="M0 0 C2.64 0 5.28 0 8 0 C8.6875 1.75 8.6875 1.75 9 4 C7.6875 6.25 7.6875 6.25 6 8 C5.34 8 4.68 8 4 8 C3.67 7.67 3.34 7.34 3 7 C2.67 8.32 2.34 9.64 2 11 C0.4375 9.4375 0.4375 9.4375 -1 7 C-0.6875 3.25 -0.6875 3.25 0 0 Z " fill="#DF6294" transform="translate(333,265)"/>
<path d="M0 0 C3 1 3 1 4.203125 2.99609375 C4.54859375 3.80175781 4.8940625 4.60742188 5.25 5.4375 C5.78367188 6.64212891 5.78367188 6.64212891 6.328125 7.87109375 C7 10 7 10 6 12 C5.21625 11.979375 4.4325 11.95875 3.625 11.9375 C1.01885039 11.81315937 1.01885039 11.81315937 -1 13 C-1.38218767 11.34385343 -1.71395102 9.67542976 -2 8 C-1.67 7.67 -1.34 7.34 -1 7 C-0.63239269 4.67182036 -0.29758419 2.3381615 0 0 Z " fill="#80759A" transform="translate(126,285)"/>
<path d="M0 0 C0.33 0.99 0.66 1.98 1 3 C3.01508358 3.73323796 3.01508358 3.73323796 5 4 C4.67 5.65 4.34 7.3 4 9 C2.35 9 0.7 9 -1 9 C-1.66 10.32 -2.32 11.64 -3 13 C-3.66 13 -4.32 13 -5 13 C-5 12.34 -5 11.68 -5 11 C-5.66 10.67 -6.32 10.34 -7 10 C-3.535 5.05 -3.535 5.05 0 0 Z " fill="#B24175" transform="translate(354,295)"/>
<path d="M0 0 C2.01822917 0.06510417 4.03645833 0.13020833 6.0546875 0.1953125 C1.94997546 6.938768 1.94997546 6.938768 -1.9453125 8.1953125 C-2.9353125 8.1953125 -3.9253125 8.1953125 -4.9453125 8.1953125 C-4.9453125 8.8553125 -4.9453125 9.5153125 -4.9453125 10.1953125 C-5.9353125 9.8653125 -6.9253125 9.5353125 -7.9453125 9.1953125 C-7.2853125 8.5353125 -6.6253125 7.8753125 -5.9453125 7.1953125 C-5.6153125 6.3703125 -5.2853125 5.5453125 -4.9453125 4.6953125 C-3.82587577 1.89672066 -3.15306801 0.31657309 0 0 Z " fill="#D585C9" transform="translate(202.9453125,295.8046875)"/>
<path d="M0 0 C2.64 0 5.28 0 8 0 C8 8.25 8 16.5 8 25 C7.67 25 7.34 25 7 25 C7 21.7 7 18.4 7 15 C6.34 14.67 5.68 14.34 5 14 C5.66 14 6.32 14 7 14 C7 11.69 7 9.38 7 7 C6.01 7.33 5.02 7.66 4 8 C2.66666667 5.33333333 1.33333333 2.66666667 0 0 Z " fill="#C17296" transform="translate(277,264)"/>
<path d="M0 0 C6.125 7.875 6.125 7.875 5.6875 11.8125 C5.460625 12.534375 5.23375 13.25625 5 14 C4.34 13.67 3.68 13.34 3 13 C3 11.68 3 10.36 3 9 C1.02 10.32 -0.96 11.64 -3 13 C-3.89674777 10.48910624 -4.13172674 9.35464891 -3.1875 6.8125 C-2 5 -2 5 0 4 C0 2.68 0 1.36 0 0 Z " fill="#B7648E" transform="translate(309,265)"/>
<path d="M0 0 C0 2.31 0 4.62 0 7 C0.66 7.33 1.32 7.66 2 8 C0.35 9.32 -1.3 10.64 -3 12 C-3.28875 11.360625 -3.5775 10.72125 -3.875 10.0625 C-4.82823451 7.84793921 -4.82823451 7.84793921 -7 7 C-6.67 5.02 -6.34 3.04 -6 1 C-3.92446352 0.4465236 -2.15634036 0 0 0 Z " fill="#F9659B" transform="translate(358,265)"/>
<path d="M0 0 C0.33 0 0.66 0 1 0 C1 2.97 1 5.94 1 9 C4.96 9 8.92 9 13 9 C13 9.99 13 10.98 13 12 C10.70839681 12.02692484 8.41670454 12.04636124 6.125 12.0625 C4.84882812 12.07410156 3.57265625 12.08570313 2.2578125 12.09765625 C-1 12 -1 12 -3 11 C-2.44894091 7.0507432 -1.61064629 3.65079826 0 0 Z " fill="#666889" transform="translate(88,301)"/>
<path d="M0 0 C1.1446875 0.1546875 1.1446875 0.1546875 2.3125 0.3125 C3.91281344 3.51312687 2.34423691 6.03521806 1.3125 9.3125 C0.57 9.250625 -0.1725 9.18875 -0.9375 9.125 C-4.14133006 9.34344296 -5.32781256 10.21500005 -7.6875 12.3125 C-4.68796992 0.54511278 -4.68796992 0.54511278 0 0 Z " fill="#C65A8E" transform="translate(324.6875,269.6875)"/>
<path d="M0 0 C3.8665284 3.222107 4.88059018 6.14922412 6 11 C6.33 11 6.66 11 7 11 C7 12.98 7 14.96 7 17 C5.35 17.33 3.7 17.66 2 18 C0.64984141 13.94952424 1.37915002 11.2079832 2 7 C1.34 6.67 0.68 6.34 0 6 C0 4.02 0 2.04 0 0 Z " fill="#903D6A" transform="translate(381,287)"/>
<path d="M0 0 C2.875 0.25 2.875 0.25 6 1 C6.309375 1.66 6.61875 2.32 6.9375 3 C7.288125 3.66 7.63875 4.32 8 5 C11.56206661 5.81870185 11.56206661 5.81870185 15 6 C15.33 5.34 15.66 4.68 16 4 C16.33 4.33 16.66 4.66 17 5 C17.66 4.34 18.32 3.68 19 3 C19 4.65 19 6.3 19 8 C6.93962004 8.57028066 6.93962004 8.57028066 3 5 C1.1875 2.3125 1.1875 2.3125 0 0 Z " fill="#89456D" transform="translate(265,305)"/>
<path d="M0 0 C1.00506592 0.04600342 2.01013184 0.09200684 3.0456543 0.1394043 C4.69404297 0.20998047 4.69404297 0.20998047 6.37573242 0.28198242 C7.52879883 0.34192383 8.68186523 0.40186523 9.86987305 0.46362305 C11.01133789 0.51196289 12.15280273 0.56030273 13.32885742 0.61010742 C18.17755703 0.83398075 22.80974907 1.09156515 27.55737305 2.15112305 C27.55737305 2.48112305 27.55737305 2.81112305 27.55737305 3.15112305 C25.80830645 3.34713913 24.05805459 3.53259708 22.30737305 3.71362305 C21.3328418 3.81803711 20.35831055 3.92245117 19.35424805 4.0300293 C16.71395664 4.14434359 15.07662152 3.78920662 12.55737305 3.15112305 C11.19060673 3.01182948 9.81991635 2.90747004 8.44799805 2.8347168 C7.69389648 2.79282227 6.93979492 2.75092773 6.1628418 2.70776367 C4.99688477 2.64878906 4.99688477 2.64878906 3.80737305 2.58862305 C2.61821289 2.52384766 2.61821289 2.52384766 1.4050293 2.45776367 C-0.5440051 2.35209313 -2.49329443 2.25114338 -4.44262695 2.15112305 C-2.44262695 0.15112305 -2.44262695 0.15112305 0 0 Z " fill="#264C68" transform="translate(43.442626953125,262.848876953125)"/>
<path d="M0 0 C0.33 0 0.66 0 1 0 C1.65354956 4.98331542 2.11738192 9.91127477 2.25 14.9375 C2.27578125 15.85402344 2.3015625 16.77054687 2.328125 17.71484375 C2.21984375 18.46894531 2.1115625 19.22304688 2 20 C1.01 20.66 0.02 21.32 -1 22 C-2 21 -2 21 -2.09765625 18.93359375 C-2.08605469 18.10988281 -2.07445312 17.28617187 -2.0625 16.4375 C-2.05347656 15.61121094 -2.04445312 14.78492188 -2.03515625 13.93359375 C-2.02355469 13.29550781 -2.01195312 12.65742188 -2 12 C-1.34 12 -0.68 12 0 12 C0 8.04 0 4.08 0 0 Z " fill="#9A86BA" transform="translate(153,266)"/>
<path d="M0 0 C-1.2843241 2.86503068 -2.41598787 5.15427705 -5 7 C-8.1875 7.1875 -8.1875 7.1875 -11 7 C-10.6875 4.625 -10.6875 4.625 -10 2 C-6.3558226 -0.4294516 -4.28758728 -0.16179575 0 0 Z " fill="#818CBE" transform="translate(100,303)"/>
<path d="M0 0 C0.33 0 0.66 0 1 0 C1.33 4.95 1.66 9.9 2 15 C2.66 15 3.32 15 4 15 C4 15.66 4 16.32 4 17 C-4.415 17.495 -4.415 17.495 -13 18 C-13 17.67 -13 17.34 -13 17 C-12.38511719 16.89042969 -11.77023438 16.78085937 -11.13671875 16.66796875 C-10.32847656 16.50941406 -9.52023438 16.35085938 -8.6875 16.1875 C-7.88699219 16.03667969 -7.08648437 15.88585937 -6.26171875 15.73046875 C-3.61955151 14.87712631 -2.5777404 14.28772358 -1 12 C-0.42052719 9.03756274 -0.42052719 9.03756274 -0.3125 5.8125 C-0.24675781 4.72582031 -0.18101563 3.63914062 -0.11328125 2.51953125 C-0.07589844 1.68808594 -0.03851563 0.85664063 0 0 Z " fill="#359093" transform="translate(68,283)"/>
<path d="M0 0 C-1.20381448 2.49361571 -2.45428722 4.68143083 -4 7 C-4 6.01 -4 5.02 -4 4 C-9.28 3.34 -14.56 2.68 -20 2 C-20 5.63 -20 9.26 -20 13 C-20.33 13 -20.66 13 -21 13 C-21 9.04 -21 5.08 -21 1 C-18.43761495 0.83138242 -15.87511576 0.66504227 -13.3125 0.5 C-12.59126953 0.45230469 -11.87003906 0.40460938 -11.12695312 0.35546875 C-7.41171286 0.11796481 -3.72305126 -0.05874637 0 0 Z " fill="#685B7A" transform="translate(155,263)"/>
<path d="M0 0 C0.33 0 0.66 0 1 0 C1 2.64 1 5.28 1 8 C-3.71248424 7.36317781 -3.71248424 7.36317781 -5.1875 5.5 C-8.00491347 3.16834748 -11.17888593 3.42716059 -14.6875 3.3125 C-15.7403418 3.26125977 -15.7403418 3.26125977 -16.81445312 3.20898438 C-18.54241387 3.12670053 -20.27118072 3.0616676 -22 3 C-22 2.67 -22 2.34 -22 2 C-13.585 1.505 -13.585 1.505 -5 1 C-5 1.66 -5 2.32 -5 3 C-3.35 3 -1.7 3 0 3 C0 2.01 0 1.02 0 0 Z " fill="#BA5599" transform="translate(220,303)"/>
<path d="M0 0 C3.67213612 7.34427223 3.87729436 13.86505777 2 22 C-0.0625 24.9375 -0.0625 24.9375 -2 27 C-2.33 25.35 -2.66 23.7 -3 22 C-2.01 21.67 -1.02 21.34 0 21 C0 14.07 0 7.14 0 0 Z " fill="#A4A5C6" transform="translate(154,265)"/>
<path d="M0 0 C2.31 0 4.62 0 7 0 C6.25 6.625 6.25 6.625 4 10 C2.68 9.67 1.36 9.34 0 9 C0.020625 8.21625 0.04125 7.4325 0.0625 6.625 C0.18684063 4.01885039 0.18684063 4.01885039 -1 2 C-0.67 1.34 -0.34 0.68 0 0 Z " fill="#C283A8" transform="translate(300,272)"/>
<path d="M0 0 C1.32 0 2.64 0 4 0 C4 0.66 4 1.32 4 2 C4.99 1.67 5.98 1.34 7 1 C6.67 1.99 6.34 2.98 6 4 C5.34 4 4.68 4 4 4 C4 4.99 4 5.98 4 7 C1.69 7 -0.62 7 -3 7 C-3 7.66 -3 8.32 -3 9 C-3.66 9 -4.32 9 -5 9 C-4.67 7.68 -4.34 6.36 -4 5 C-3.01 5 -2.02 5 -1 5 C-0.67 3.35 -0.34 1.7 0 0 Z " fill="#2396A6" transform="translate(57,269)"/>
<path d="M0 0 C1.65 0 3.3 0 5 0 C5 4.62 5 9.24 5 14 C4.01 14 3.02 14 2 14 C2 11.36 2 8.72 2 6 C1.01 6.495 1.01 6.495 0 7 C-0.93423645 3.98968256 -1.04449911 3.13349732 0 0 Z " fill="#A895C2" transform="translate(189,290)"/>
<path d="M0 0 C0.33 0 0.66 0 1 0 C1 6.27 1 12.54 1 19 C1.66 19 2.32 19 3 19 C3 19.99 3 20.98 3 22 C5.29629994 23.14814997 7.07698086 23.30769809 9.625 23.5625 C10.44226563 23.64628906 11.25953125 23.73007812 12.1015625 23.81640625 C13.04128906 23.90728516 13.04128906 23.90728516 14 24 C14 24.33 14 24.66 14 25 C12.22925083 25.02705729 10.45838289 25.04642195 8.6875 25.0625 C7.70136719 25.07410156 6.71523437 25.08570313 5.69921875 25.09765625 C3 25 3 25 0 24 C0 16.08 0 8.16 0 0 Z " fill="#6A3555" transform="translate(237,288)"/>
<path d="M0 0 C1.60407328 -0.02708567 3.2082785 -0.04643483 4.8125 -0.0625 C5.70582031 -0.07410156 6.59914062 -0.08570313 7.51953125 -0.09765625 C10 0 10 0 13 1 C13 5.29 13 9.58 13 14 C10.36 14.33 7.72 14.66 5 15 C5.33 14.34 5.66 13.68 6 13 C7.98 13 9.96 13 12 13 C11.67 9.7 11.34 6.4 11 3 C8.69 3 6.38 3 4 3 C4 2.34 4 1.68 4 1 C2.68 0.67 1.36 0.34 0 0 Z " fill="#524964" transform="translate(169,263)"/>
<path d="M0 0 C2.4375 1.4375 2.4375 1.4375 4 3 C4 3.66 4 4.32 4 5 C2.0625 4.6875 2.0625 4.6875 0 4 C-0.33 3.01 -0.66 2.02 -1 1 C-1.84304687 1.2165625 -2.68609375 1.433125 -3.5546875 1.65625 C-5.19824219 2.07390625 -5.19824219 2.07390625 -6.875 2.5 C-7.96554688 2.7784375 -9.05609375 3.056875 -10.1796875 3.34375 C-13 4 -13 4 -15 4 C-15 3.34 -15 2.68 -15 2 C-9.48934734 -0.41695292 -6.02311172 -1.621607 0 0 Z " fill="#1F7A9F" transform="translate(76,267)"/>
<path d="M0 0 C0.99 0.33 1.98 0.66 3 1 C2.34 3.31 1.68 5.62 1 8 C0.34 7.67 -0.32 7.34 -1 7 C-2.54023996 6.93049459 -4.08334988 6.91547643 -5.625 6.9375 C-6.44226563 6.94652344 -7.25953125 6.95554687 -8.1015625 6.96484375 C-8.72804688 6.97644531 -9.35453125 6.98804688 -10 7 C-9.10474609 6.58814453 -9.10474609 6.58814453 -8.19140625 6.16796875 C-6.10687576 5.0569623 -4.6558014 3.91166584 -2.9375 2.3125 C-1.968125 1.549375 -0.99875 0.78625 0 0 Z " fill="#7976A2" transform="translate(101,304)"/>
<path d="M0 0 C1.32 0.33 2.64 0.66 4 1 C4 4.3 4 7.6 4 11 C0.7 11.33 -2.6 11.66 -6 12 C-4 10 -4 10 -1 8 C0.06246527 6.03247172 1.07137808 4.03412421 2 2 C1.34 2 0.68 2 0 2 C0 1.34 0 0.68 0 0 Z " fill="#897AA6" transform="translate(177,265)"/>
<path d="M0 0 C-3 2 -3 2 -7 2 C-7 2.66 -7 3.32 -7 4 C-7.66 4 -8.32 4 -9 4 C-9 10.6 -9 17.2 -9 24 C-9.99 23.67 -10.98 23.34 -12 23 C-11.67 22.34 -11.34 21.68 -11 21 C-10.84876169 19.4804236 -10.75118307 17.95527498 -10.68359375 16.4296875 C-10.64169922 15.53378906 -10.59980469 14.63789063 -10.55664062 13.71484375 C-10.49766602 12.30912109 -10.49766602 12.30912109 -10.4375 10.875 C-10.39431641 9.93011719 -10.35113281 8.98523438 -10.30664062 8.01171875 C-10.20040928 5.67462908 -10.09836824 3.3374317 -10 1 C-6.52674819 -0.1577506 -3.63932552 -0.06866652 0 0 Z " fill="#70415C" transform="translate(280,263)"/>
<path d="M0 0 C-1.485 1.485 -1.485 1.485 -3 3 C-3.99 2.67 -4.98 2.34 -6 2 C-6 3.98 -6 5.96 -6 8 C-9.03200339 6.9893322 -9.99878825 6.36506843 -12 4 C-12.33 3.01 -12.66 2.02 -13 1 C-8.62426048 0.40667939 -4.42471556 -0.13827236 0 0 Z " fill="#49A5B3" transform="translate(68,300)"/>
<path d="M0 0 C5.75 -0.125 5.75 -0.125 8 1 C7.67 3.31 7.34 5.62 7 8 C6.01 8.33 5.02 8.66 4 9 C4.33 7.02 4.66 5.04 5 3 C2.84188612 3.94729537 2.84188612 3.94729537 1 6 C0.34 5.67 -0.32 5.34 -1 5 C-0.67 3.35 -0.34 1.7 0 0 Z " fill="#E37BAD" transform="translate(243,264)"/>
<path d="M0 0 C1.61949011 2.57213134 2.04408751 3.67669159 1.625 6.75 C1.315625 7.86375 1.315625 7.86375 1 9 C0.67 8.01 0.34 7.02 0 6 C-5.28 6 -10.56 6 -16 6 C-16 5.67 -16 5.34 -16 5 C-15.11248047 4.90912109 -15.11248047 4.90912109 -14.20703125 4.81640625 C-10.09021792 4.37987629 -6.04455467 3.91328654 -2 3 C-2 2.34 -2 1.68 -2 1 C-1.34 0.67 -0.68 0.34 0 0 Z " fill="#5A587A" transform="translate(119,300)"/>
<path d="M0 0 C1.32 0.33 2.64 0.66 4 1 C4.33 2.65 4.66 4.3 5 6 C0.38 6 -4.24 6 -9 6 C-6.01353231 4.00902154 -3.40312738 3.05875074 0 2 C0 1.34 0 0.68 0 0 Z " fill="#A4CAD3" transform="translate(132,306)"/>
<path d="M0 0 C0.66 0.33 1.32 0.66 2 1 C2 5.29 2 9.58 2 14 C-1.53768804 10.46231196 -1.5598187 8.84199434 -2 4 C-2 3.34 -2 2.68 -2 2 C-1.34 2 -0.68 2 0 2 C0 1.34 0 0.68 0 0 Z " fill="#52D7C7" transform="translate(82,278)"/>
<path d="M0 0 C0.33 0 0.66 0 1 0 C1 6.93 1 13.86 1 21 C0.67 21 0.34 21 0 21 C-0.03738281 20.32453125 -0.07476562 19.6490625 -0.11328125 18.953125 C-0.17902344 18.06109375 -0.24476562 17.1690625 -0.3125 16.25 C-0.37050781 15.36828125 -0.42851563 14.4865625 -0.48828125 13.578125 C-1.06822948 10.65624843 -2.18843328 9.31181168 -4 7 C-4 6.01 -4 5.02 -4 4 C-2.68 4 -1.36 4 0 4 C0 2.68 0 1.36 0 0 Z " fill="#37B7AF" transform="translate(53,278)"/>
<path d="M0 0 C3.56158028 0.61055662 6.84203996 1.2076443 10 3 C11.3125 6.125 11.3125 6.125 12 9 C11.01 9.33 10.02 9.66 9 10 C9 8.68 9 7.36 9 6 C8.34 6 7.68 6 7 6 C7 5.01 7 4.02 7 3 C4.36 3 1.72 3 -1 3 C-0.67 2.01 -0.34 1.02 0 0 Z " fill="#31AAA3" transform="translate(72,270)"/>
<path d="M0 0 C1.50433594 0.01353516 1.50433594 0.01353516 3.0390625 0.02734375 C3.80992188 0.03894531 4.58078125 0.05054688 5.375 0.0625 C4.735625 0.371875 4.09625 0.68125 3.4375 1 C1.43889179 1.8970163 1.43889179 1.8970163 0.375 3.0625 C-1.652754 3.31999257 -3.68128209 3.57457223 -5.71484375 3.78125 C-7.70588347 3.97287786 -7.70588347 3.97287786 -9.625 5.0625 C-7.31621143 -0.04981756 -5.45179037 -0.06339291 0 0 Z M-12.625 5.0625 C-11.635 5.3925 -10.645 5.7225 -9.625 6.0625 C-11.605 7.0525 -11.605 7.0525 -13.625 8.0625 C-13.295 7.0725 -12.965 6.0825 -12.625 5.0625 Z " fill="#1F6C94" transform="translate(63.625,265.9375)"/>
<path d="M0 0 C0.99 0.99 1.98 1.98 3 3 C1.125 7.75 1.125 7.75 0 10 C-1.65 9.67 -3.3 9.34 -5 9 C-5 8.01 -5 7.02 -5 6 C-4.34 6 -3.68 6 -3 6 C-3 5.01 -3 4.02 -3 3 C-2.34 3 -1.68 3 -1 3 C-0.67 3.66 -0.34 4.32 0 5 C0 3.35 0 1.7 0 0 Z " fill="#C65382" transform="translate(335,270)"/>
<path d="M0 0 C0.66 0 1.32 0 2 0 C2.3690205 13.6332574 2.3690205 13.6332574 0 20 C-0.33 20 -0.66 20 -1 20 C-1.02696009 17.2291017 -1.04681952 14.4584655 -1.0625 11.6875 C-1.07087891 10.90181641 -1.07925781 10.11613281 -1.08789062 9.30664062 C-1.09111328 8.54931641 -1.09433594 7.79199219 -1.09765625 7.01171875 C-1.10289307 6.31522217 -1.10812988 5.61872559 -1.11352539 4.90112305 C-1 3 -1 3 0 0 Z " fill="#29B0AD" transform="translate(40,285)"/>
<path d="M0 0 C2.1640625 -0.29296875 2.1640625 -0.29296875 4.625 -0.1875 C5.44226563 -0.16042969 6.25953125 -0.13335937 7.1015625 -0.10546875 C8.04128906 -0.05326172 8.04128906 -0.05326172 9 0 C9 0.33 9 0.66 9 1 C8.030625 1.268125 7.06125 1.53625 6.0625 1.8125 C5.051875 2.204375 4.04125 2.59625 3 3 C2.67 3.99 2.34 4.98 2 6 C1.01 6 0.02 6 -1 6 C-1 6.66 -1 7.32 -1 8 C-1.66 8 -2.32 8 -3 8 C-2.45276317 4.62537285 -1.9451 2.91765 0 0 Z " fill="#C45D82" transform="translate(378,264)"/>
<path d="M0 0 C0.99 0 1.98 0 3 0 C3 1.32 3 2.64 3 4 C2.071875 3.95875 1.14375 3.9175 0.1875 3.875 C-3.15809719 3.72863661 -3.15809719 3.72863661 -6 6 C-7.32 6 -8.64 6 -10 6 C-10 5.01 -10 4.02 -10 3 C-6.7 2.67 -3.4 2.34 0 2 C0 1.34 0 0.68 0 0 Z " fill="#139AA3" transform="translate(50,278)"/>
<path d="M0 0 C3.63 0 7.26 0 11 0 C11 0.33 11 0.66 11 1 C8.03 1.66 5.06 2.32 2 3 C1.79029441 7.14093698 1.79029441 7.14093698 3 11 C2.01 11 1.02 11 0 11 C0 7.37 0 3.74 0 0 Z " fill="#9984B0" transform="translate(135,265)"/>
<path d="M0 0 C2.37948772 0.17625835 3.70225849 0.69719773 5.37890625 2.40234375 C6.62115486 3.90649092 7.81376056 5.45129851 9 7 C6.92446352 7.5534764 5.15634036 8 3 8 C2.67 8.66 2.34 9.32 2 10 C2.33 8.02 2.66 6.04 3 4 C2.34 3.67 1.68 3.34 1 3 C1.33 2.34 1.66 1.68 2 1 C1.34 0.67 0.68 0.34 0 0 Z " fill="#96517C" transform="translate(249,264)"/>
<path d="M0 0 C0.33 0.66 0.66 1.32 1 2 C1.66 2 2.32 2 3 2 C6 6.38461538 6 6.38461538 6 9 C6.66 9 7.32 9 8 9 C8.33 10.32 8.66 11.64 9 13 C8.01 13 7.02 13 6 13 C6 12.01 6 11.02 6 10 C5.38125 9.7525 4.7625 9.505 4.125 9.25 C1.58469272 7.7557016 0.97135817 6.75218149 0 4 C0 2.68 0 1.36 0 0 Z " fill="#6A3555" transform="translate(386,295)"/>
<path d="M0 0 C0.66 0.33 1.32 0.66 2 1 C2 2.98 2 4.96 2 7 C1.34 6.67 0.68 6.34 0 6 C-1.32 7.65 -2.64 9.3 -4 11 C-4.75 8.75 -4.75 8.75 -5 6 C-3.125 3.8125 -3.125 3.8125 -1 2 C-0.67 1.34 -0.34 0.68 0 0 Z " fill="#CAB3D5" transform="translate(199,285)"/>
<path d="M0 0 C1.32 0 2.64 0 4 0 C3.62671065 5.35048061 2.0042343 7.50912907 -2 11 C-2 9.02 -2 7.04 -2 5 C-1.34 5 -0.68 5 0 5 C0 3.35 0 1.7 0 0 Z " fill="#7FDDD6" transform="translate(98,277)"/>
<path d="M0 0 C0.66666667 2.66666667 1.33333333 5.33333333 2 8 C1.34 8 0.68 8 0 8 C0 10.64 0 13.28 0 16 C-0.66 15.01 -1.32 14.02 -2 13 C-2.66 13 -3.32 13 -4 13 C-3.52140759 11.39566191 -3.04210442 9.79153584 -2.5625 8.1875 C-2.29566406 7.29417969 -2.02882812 6.40085937 -1.75390625 5.48046875 C-1.19612127 3.64526945 -0.60655425 1.81966274 0 0 Z " fill="#93A9AB" transform="translate(194,269)"/>
<path d="M0 0 C1.67542976 0.28604898 3.34385343 0.61781233 5 1 C5.33 2.98 5.66 4.96 6 7 C5.38125 6.649375 4.7625 6.29875 4.125 5.9375 C3.073125 5.4734375 3.073125 5.4734375 2 5 C1.01 5.495 1.01 5.495 0 6 C-0.38218767 4.34385343 -0.71395102 2.67542976 -1 1 C-0.67 0.67 -0.34 0.34 0 0 Z " fill="#DB5E8A" transform="translate(361,264)"/>
<path d="M0 0 C0.99 0.33 1.98 0.66 3 1 C2.67 2.32 2.34 3.64 2 5 C2.66 5 3.32 5 4 5 C4 7.31 4 9.62 4 12 C4.66 12.33 5.32 12.66 6 13 C2.37 13 -1.26 13 -5 13 C-5 12.67 -5 12.34 -5 12 C-2.36 12 0.28 12 3 12 C2.01 8.04 1.02 4.08 0 0 Z " fill="#5A5376" transform="translate(112,282)"/>
<path d="M0 0 C0.66 0.33 1.32 0.66 2 1 C3.27536232 6.44927536 3.27536232 6.44927536 2 9 C-0.46800047 7.84826645 -2.04783565 6.95216435 -4 5 C-2.68 3.35 -1.36 1.7 0 0 Z " fill="#5292B2" transform="translate(71,301)"/>
<path d="M0 0 C1.73662334 3.22515763 2.8905928 6.51329166 4 10 C3.01 10 2.02 10 1 10 C-1.25 7.1875 -1.25 7.1875 -3 4 C-2.67 3.01 -2.34 2.02 -2 1 C-1.34 0.67 -0.68 0.34 0 0 Z " fill="#933D64" transform="translate(374,298)"/>
<path d="M0 0 C0.66 0.66 1.32 1.32 2 2 C1.625 4.125 1.625 4.125 1 6 C-1.76264289 6.59732819 -4.16032769 7 -7 7 C-6.67 6.01 -6.34 5.02 -6 4 C-5.34 4.33 -4.68 4.66 -4 5 C-3.67 4.01 -3.34 3.02 -3 2 C-2.01 1.34 -1.02 0.68 0 0 Z " fill="#DBA6D7" transform="translate(219,284)"/>
<path d="M0 0 C0.66 0.33 1.32 0.66 2 1 C1.67 1.61875 1.34 2.2375 1 2.875 C-0.18731318 6.58535369 -0.09053152 9.68729428 -0.00390625 13.55078125 C0.00071691 16.44950158 -0.40356258 19.16692225 -1 22 C-1.33 22 -1.66 22 -2 22 C-2 15.4 -2 8.8 -2 2 C-1.34 2 -0.68 2 0 2 C0 1.34 0 0.68 0 0 Z " fill="#B36694" transform="translate(273,265)"/>
<path d="M0 0 C0.99 0 1.98 0 3 0 C3 0.66 3 1.32 3 2 C3.99 2.33 4.98 2.66 6 3 C5.01 4.485 5.01 4.485 4 6 C3.01 6 2.02 6 1 6 C0.34 6.66 -0.32 7.32 -1 8 C-1.625 5.6875 -1.625 5.6875 -2 3 C-1.34 2.01 -0.68 1.02 0 0 Z " fill="#C9BFD3" transform="translate(209,278)"/>
<path d="M0 0 C0.66 0 1.32 0 2 0 C2.6987693 1.76641683 3.38366583 3.53832664 4.0625 5.3125 C4.44535156 6.29863281 4.82820312 7.28476562 5.22265625 8.30078125 C6 11 6 11 5 14 C4.67 12.35 4.34 10.7 4 9 C3.01 8.67 2.02 8.34 1 8 C0.67 5.36 0.34 2.72 0 0 Z " fill="#7A8E98" transform="translate(132,298)"/>
<path d="M0 0 C0.66 0.33 1.32 0.66 2 1 C1.25 5.75 1.25 5.75 -1 8 C-1.71408334 9.98356483 -2.38617742 11.98315437 -3 14 C-3.99 13.67 -4.98 13.34 -6 13 C-6 12.34 -6 11.68 -6 11 C-5.34 10.67 -4.68 10.34 -4 10 C-2.86897474 7.65961814 -2.86897474 7.65961814 -1.875 4.9375 C-1.52179688 4.01839844 -1.16859375 3.09929687 -0.8046875 2.15234375 C-0.40636719 1.08693359 -0.40636719 1.08693359 0 0 Z " fill="#AD4278" transform="translate(382,293)"/>
<path d="M0 0 C0.66 0 1.32 0 2 0 C2.39222105 1.41199578 2.76311059 2.82992764 3.125 4.25 C3.33382812 5.03890625 3.54265625 5.8278125 3.7578125 6.640625 C4.04314411 9.4203071 3.44977894 10.65887549 2 13 C-0.20914 9.68629 -0.22481553 8.6553979 -0.125 4.8125 C-0.10695313 3.91144531 -0.08890625 3.01039063 -0.0703125 2.08203125 C-0.04710938 1.39496094 -0.02390625 0.70789063 0 0 Z " fill="#48CDC2" transform="translate(69,282)"/>
<path d="M0 0 C0.99 0.33 1.98 0.66 3 1 C3.33 3.97 3.66 6.94 4 10 C3.01 10.33 2.02 10.66 1 11 C1 10.34 1 9.68 1 9 C0.34 8.67 -0.32 8.34 -1 8 C-1 4.88742431 -0.82638376 2.89234315 0 0 Z " fill="#C2E6E1" transform="translate(195,269)"/>
<path d="M0 0 C1.32 0.66 2.64 1.32 4 2 C4 2.99 4 3.98 4 5 C3.071875 5.12375 3.071875 5.12375 2.125 5.25 C-0.1765144 5.79994195 -0.1765144 5.79994195 -1.125 8 C-1.41375 8.66 -1.7025 9.32 -2 10 C-2.99 10.495 -2.99 10.495 -4 11 C-2.90931332 7.22454612 -2.0916909 4.52956528 1 2 C0.67 1.34 0.34 0.68 0 0 Z " fill="#6D98B9" transform="translate(116,265)"/>
<path d="M0 0 C1.32 0.66 2.64 1.32 4 2 C3.34 2 2.68 2 2 2 C1.34 4.97 0.68 7.94 0 11 C-1.65 11 -3.3 11 -5 11 C-4.34 9.35 -3.68 7.7 -3 6 C-2.34 6 -1.68 6 -1 6 C-0.67 4.02 -0.34 2.04 0 0 Z M-3 8 C-3 8.66 -3 9.32 -3 10 C-2.34 9.67 -1.68 9.34 -1 9 C-1.66 8.67 -2.32 8.34 -3 8 Z " fill="#949293" transform="translate(394,315)"/>
<path d="M0 0 C0.33 0.66 0.66 1.32 1 2 C1.66 2 2.32 2 3 2 C1.9024777 4.99324263 1.32317108 5.84610901 -1.625 7.25 C-2.40875 7.4975 -3.1925 7.745 -4 8 C-4 6.68 -4 5.36 -4 4 C-3.34 4 -2.68 4 -2 4 C-1.34 2.68 -0.68 1.36 0 0 Z " fill="#578199" transform="translate(77,302)"/>
<path d="M0 0 C0.66 1.98 1.32 3.96 2 6 C1.38125 5.360625 0.7625 4.72125 0.125 4.0625 C-4.13332898 1.25200287 -7.99401138 1.19440733 -13 1 C-13 0.67 -13 0.34 -13 0 C-8.37078475 -1.0161692 -4.65537393 -0.83796731 0 0 Z " fill="#5B727C" transform="translate(121,264)"/>
<path d="M0 0 C0.70703125 1.77734375 0.70703125 1.77734375 1 4 C-0.36328125 5.81640625 -0.36328125 5.81640625 -2.3125 7.5625 C-4.64358565 9.68553744 -6.22576361 11.33864542 -8 14 C-7.71915428 9.97454466 -7.21634296 8.25517374 -4.5625 5.125 C-2 3 -2 3 0 3 C0 2.01 0 1.02 0 0 Z " fill="#A6A5A6" transform="translate(341,320)"/>
<path d="M0 0 C1.98 0.66 3.96 1.32 6 2 C5.34 3.65 4.68 5.3 4 7 C2.68 7 1.36 7 0 7 C0 4.69 0 2.38 0 0 Z " fill="#AD73AD" transform="translate(192,304)"/>
<path d="M0 0 C1.90608098 3.21182149 2.22266247 5.53882603 2.125 9.25 C2.10695312 10.14203125 2.08890625 11.0340625 2.0703125 11.953125 C2.04710937 12.62859375 2.02390625 13.3040625 2 14 C1.01 13.67 0.02 13.34 -1 13 C-1.02686553 11.02090602 -1.04633375 9.04171029 -1.0625 7.0625 C-1.07410156 5.96035156 -1.08570313 4.85820312 -1.09765625 3.72265625 C-1 1 -1 1 0 0 Z " fill="#ADB0CA" transform="translate(164,297)"/>
<path d="M0 0 C1.2065625 0.0309375 1.2065625 0.0309375 2.4375 0.0625 C2.7675 0.7225 3.0975 1.3825 3.4375 2.0625 C3.1075 3.0525 2.7775 4.0425 2.4375 5.0625 C0.7875 4.7325 -0.8625 4.4025 -2.5625 4.0625 C-2.8925 4.7225 -3.2225 5.3825 -3.5625 6.0625 C-4.2225 6.0625 -4.8825 6.0625 -5.5625 6.0625 C-3.26136364 0.07954545 -3.26136364 0.07954545 0 0 Z " fill="#919EBD" transform="translate(129.5625,295.9375)"/>
<path d="M0 0 C0.89254119 2.93357289 1.0110479 5.04847884 0.5 8.0625 C-0.2755843 11.89527485 -0.2755843 11.89527485 1 15 C0.01 15 -0.98 15 -2 15 C-3.23922223 11.28233332 -2.57018942 9.56110463 -1.5625 5.8125 C-1.13130859 4.18248047 -1.13130859 4.18248047 -0.69140625 2.51953125 C-0.46324219 1.68808594 -0.23507813 0.85664063 0 0 Z " fill="#86839E" transform="translate(189,283)"/>
<path d="M0 0 C2.6015625 0.2421875 2.6015625 0.2421875 5.625 0.875 C6.62789062 1.07867187 7.63078125 1.28234375 8.6640625 1.4921875 C9.43492187 1.65976562 10.20578125 1.82734375 11 2 C7.31282562 4.45811625 5.35654296 4.31118164 1 4 C0.01 3.34 -0.98 2.68 -2 2 C-1.34 1.34 -0.68 0.68 0 0 Z " fill="#795489" transform="translate(137,274)"/>
<path d="M0 0 C-0.61538462 6.52307692 -0.61538462 6.52307692 -2.5625 8.9375 C-3.036875 9.288125 -3.51125 9.63875 -4 10 C-4.66 9.67 -5.32 9.34 -6 9 C-5.5504955 7.68445015 -5.09010284 6.37261642 -4.625 5.0625 C-4.36976562 4.33160156 -4.11453125 3.60070312 -3.8515625 2.84765625 C-2.95691386 0.90651493 -2.28662459 0 0 0 Z " fill="#7EE6D9" transform="translate(109,267)"/>
<path d="M0 0 C0 2.31 0 4.62 0 7 C-0.99 7.33 -1.98 7.66 -3 8 C-4.0625 6.1875 -4.0625 6.1875 -5 4 C-4.67 3.01 -4.34 2.02 -4 1 C-2 0 -2 0 0 0 Z " fill="#C3E9E0" transform="translate(215,265)"/>
<path d="M0 0 C0.66 0.33 1.32 0.66 2 1 C2 3.33333333 2 5.66666667 2 8 C0.68 8.33 -0.64 8.66 -2 9 C-2 6.36 -2 3.72 -2 1 C-1.34 0.67 -0.68 0.34 0 0 Z " fill="#A15193" transform="translate(225,303)"/>
<path d="M0 0 C0.33 0.66 0.66 1.32 1 2 C2.32 1.67 3.64 1.34 5 1 C4.71125 1.515625 4.4225 2.03125 4.125 2.5625 C2.71219973 5.62356725 1.8751483 8.74944918 1 12 C0.67 12 0.34 12 0 12 C0 8.04 0 4.08 0 0 Z " fill="#8C89B5" transform="translate(172,264)"/>
<path d="M0 0 C0.33 0 0.66 0 1 0 C1.02703381 1.93742341 1.04641125 3.87495479 1.0625 5.8125 C1.07410156 6.89144531 1.08570312 7.97039062 1.09765625 9.08203125 C1 12 1 12 0 15 C-2.0625 15.6875 -2.0625 15.6875 -4 16 C-3 14 -2 12 -1 10 C-0.77377919 8.29636178 -0.59111527 6.58671299 -0.4375 4.875 C-0.31181641 3.50988281 -0.31181641 3.50988281 -0.18359375 2.1171875 C-0.12300781 1.41851562 -0.06242187 0.71984375 0 0 Z " fill="#52989C" transform="translate(84,282)"/>
<path d="M0 0 C2.95183101 2.95183101 3.08663988 5.95511947 4 10 C3.34 10 2.68 10 2 10 C1.34 11.32 0.68 12.64 0 14 C0 9.38 0 4.76 0 0 Z " fill="#955E8A" transform="translate(222,284)"/>
<path d="M0 0 C0.99 0.33 1.98 0.66 3 1 C2.38461538 7.52307692 2.38461538 7.52307692 0.4375 9.9375 C-0.036875 10.288125 -0.51125 10.63875 -1 11 C-1 7.21293268 -0.5745952 3.73486879 0 0 Z " fill="#9578B1" transform="translate(126,285)"/>
<path d="M0 0 C2.0625 0.4375 2.0625 0.4375 4 1 C4 2.65 4 4.3 4 6 C3.01 6.33 2.02 6.66 1 7 C0.34 5.02 -0.32 3.04 -1 1 C-0.67 0.67 -0.34 0.34 0 0 Z " fill="#D2689B" transform="translate(280,265)"/>
<path d="M0 0 C1.65 1.65 3.3 3.3 5 5 C1.92677456 5.91058531 -0.80097361 6.08886184 -4 6 C-3.34 5.67 -2.68 5.34 -2 5 C-1.6278958 3.67696283 -1.29369827 2.34262065 -1 1 C-0.67 0.67 -0.34 0.34 0 0 Z " fill="#289BA5" transform="translate(52,298)"/>
<path d="M0 0 C0.66 0 1.32 0 2 0 C1.67 1.65 1.34 3.3 1 5 C-3.40914783 6.10228696 -7.48382401 6.07654536 -12 6 C-12 5.67 -12 5.34 -12 5 C-11.07767578 4.83564453 -11.07767578 4.83564453 -10.13671875 4.66796875 C-9.32847656 4.50941406 -8.52023438 4.35085938 -7.6875 4.1875 C-6.88699219 4.03667969 -6.08648437 3.88585937 -5.26171875 3.73046875 C-2.74569185 2.91786593 -1.77405234 1.89891233 0 0 Z " fill="#3C7680" transform="translate(67,295)"/>
<path d="M0 0 C0.89377528 3.57510111 1.0258444 5.24917563 0.5625 8.75 C0.40974609 9.94882812 0.40974609 9.94882812 0.25390625 11.171875 C0.12822266 12.07679688 0.12822266 12.07679688 0 13 C-0.99 12.01 -1.98 11.02 -3 10 C-2.01 6.7 -1.02 3.4 0 0 Z " fill="#736488" transform="translate(186,291)"/>
<path d="M0 0 C2.5654594 2.5654594 2.54046087 4.47686668 3 8 C1.35 8 -0.3 8 -2 8 C-1.47731534 5.23723823 -0.89130413 2.6739124 0 0 Z " fill="#7295AB" transform="translate(91,293)"/>
<path d="M0 0 C0.33 0 0.66 0 1 0 C1.08131463 1.43655854 1.13933559 2.8744483 1.1875 4.3125 C1.22230469 5.11300781 1.25710937 5.91351563 1.29296875 6.73828125 C0.93801608 9.47851584 0.10633718 10.29171079 -2 12 C-3.15957207 8.52128379 -2.77456651 7.65780355 -1.5625 4.3125 C-1.13130859 3.10013672 -1.13130859 3.10013672 -0.69140625 1.86328125 C-0.46324219 1.24839844 -0.23507813 0.63351562 0 0 Z " fill="#6FA3A8" transform="translate(95,282)"/>
<path d="M0 0 C0.33 0 0.66 0 1 0 C1.08086147 1.79093191 1.13912702 3.58289628 1.1875 5.375 C1.22230469 6.37273437 1.25710937 7.37046875 1.29296875 8.3984375 C1.19628906 9.25695312 1.09960938 10.11546875 1 11 C0.01 11.66 -0.98 12.32 -2 13 C-3 12 -3 12 -3.0625 8.9375 C-3.041875 7.968125 -3.02125 6.99875 -3 6 C-2.34 6.66 -1.68 7.32 -1 8 C-0.67 5.36 -0.34 2.72 0 0 Z " fill="#9D94BD" transform="translate(154,275)"/>
<path d="M0 0 C3.3 0 6.6 0 10 0 C10 0.33 10 0.66 10 1 C8.2984375 1.2165625 8.2984375 1.2165625 6.5625 1.4375 C3.19222799 1.61171478 3.19222799 1.61171478 2 3 C1.76807135 4.51469448 1.58784762 6.03754562 1.4375 7.5625 C1.35371094 8.38878906 1.26992188 9.21507812 1.18359375 10.06640625 C1.12300781 10.70449219 1.06242187 11.34257812 1 12 C0.67 12 0.34 12 0 12 C0 8.04 0 4.08 0 0 Z " fill="#2A6088" transform="translate(39,265)"/>
<path d="M0 0 C-0.33 0.99 -0.66 1.98 -1 3 C-2.33333333 3.66666667 -3.66666667 4.33333333 -5 5 C-6.73425773 7.03317007 -6.73425773 7.03317007 -8 9 C-7.47731534 6.23723823 -6.89130413 3.6739124 -6 1 C-4 0 -4 0 0 0 Z " fill="#1D9FA8" transform="translate(75,268)"/>
<path d="M0 0 C0.83449189 3.33796756 1.46019653 6.60694964 2 10 C0.35 10 -1.3 10 -3 10 C-2.01 6.7 -1.02 3.4 0 0 Z " fill="#73577C" transform="translate(182,301)"/>
<path d="M0 0 C0.99 0.66 1.98 1.32 3 2 C2.19185349 3.33597652 1.37836819 4.668725 0.5625 6 C0.11003906 6.7425 -0.34242188 7.485 -0.80859375 8.25 C-1.20175781 8.8275 -1.59492188 9.405 -2 10 C-2.33 10 -2.66 10 -3 10 C-3 8.35 -3 6.7 -3 5 C-2.34 5 -1.68 5 -1 5 C-0.67 3.35 -0.34 1.7 0 0 Z " fill="#863659" transform="translate(385,276)"/>
<path d="M0 0 C0.66 0 1.32 0 2 0 C2 3.96 2 7.92 2 12 C1.01 12.495 1.01 12.495 0 13 C-1.10255386 9.69233843 -0.82087211 9.19228042 0 6 C0.03845443 4.00036972 0.04544281 1.99948367 0 0 Z " fill="#9BA4C2" transform="translate(170,264)"/>
<path d="M0 0 C3.96 0.33 7.92 0.66 12 1 C8.08339763 2.95830118 7.06235943 3 3 3 C2.01 3.66 1.02 4.32 0 5 C0 3.35 0 1.7 0 0 Z " fill="#DB99CE" transform="translate(198,294)"/>
<path d="M0 0 C1.0516399 3.15491969 0.98032423 4.03355588 0.1875 7.125 C0.01605469 7.82882812 -0.15539062 8.53265625 -0.33203125 9.2578125 C-1 11 -1 11 -3 12 C-3.34833144 7.12335991 -2.41685712 4.22949995 0 0 Z " fill="#CB5F9D" transform="translate(251,268)"/>
<path d="M0 0 C1.98 0.495 1.98 0.495 4 1 C2.25 5.875 2.25 5.875 0 7 C-1.04449911 3.86650268 -0.93423645 3.01031744 0 0 Z " fill="#8F3862" transform="translate(361,305)"/>
<path d="M0 0 C1.485 0.99 1.485 0.99 3 2 C2.625 4.4375 2.625 4.4375 2 7 C1.01 7.495 1.01 7.495 0 8 C-1.125 2.25 -1.125 2.25 0 0 Z " fill="#C2A0C0" transform="translate(209,284)"/>
<path d="M0 0 C0.66 0 1.32 0 2 0 C2.75 1.75 2.75 1.75 3 4 C1.0625 6.25 1.0625 6.25 -1 8 C-1.33 6.02 -1.66 4.04 -2 2 C-1.34 2 -0.68 2 0 2 C0 1.34 0 0.68 0 0 Z " fill="#A33C63" transform="translate(391,266)"/>
<path d="M0 0 C1.62490954 -0.02698189 3.24994633 -0.04638757 4.875 -0.0625 C5.77992188 -0.07410156 6.68484375 -0.08570313 7.6171875 -0.09765625 C10 0 10 0 12 1 C11.67 1.66 11.34 2.32 11 3 C8.69 3 6.38 3 4 3 C4 2.34 4 1.68 4 1 C2.68 0.67 1.36 0.34 0 0 Z " fill="#494656" transform="translate(169,263)"/>
<path d="M0 0 C1.39195915 4.17587745 -0.17676781 6.13474776 -2 10 C-2.66 9.67 -3.32 9.34 -4 9 C-4.25 6.75 -4.25 6.75 -4 4 C-2 1.6875 -2 1.6875 0 0 Z " fill="#7B82AE" transform="translate(124,295)"/>
<path d="M0 0 C0.99 0.495 0.99 0.495 2 1 C2.86159454 4.23097953 3.30597523 6.22486274 2.0625 9.375 C1.711875 9.91125 1.36125 10.4475 1 11 C0.67 11 0.34 11 0 11 C0 7.37 0 3.74 0 0 Z " fill="#A75D9B" transform="translate(224,293)"/>
<path d="M0 0 C0.66 0 1.32 0 2 0 C2 0.66 2 1.32 2 2 C2.99 2 3.98 2 5 2 C5.66 4.64 6.32 7.28 7 10 C3.72713318 7.2180632 2.03572303 3.72045933 0 0 Z " fill="#9C3E64" transform="translate(352,275)"/>
<path d="M0 0 C0.66 0 1.32 0 2 0 C0.92598892 2.91517292 0.22189824 4.77810176 -2 7 C-2.99 7 -3.98 7 -5 7 C-5 6.34 -5 5.68 -5 5 C-4.01 5 -3.02 5 -2 5 C-1.7834375 4.0409375 -1.7834375 4.0409375 -1.5625 3.0625 C-1 1 -1 1 0 0 Z " fill="#EC5C91" transform="translate(382,265)"/>
<path d="M0 0 C0.33 1.32 0.66 2.64 1 4 C2.98 4 4.96 4 7 4 C7 4.66 7 5.32 7 6 C4.36 6 1.72 6 -1 6 C-0.67 4.02 -0.34 2.04 0 0 Z " fill="#807D7E" transform="translate(39,254)"/>
<path d="M0 0 C0.6875 1.8125 0.6875 1.8125 1 4 C-0.4375 5.75 -0.4375 5.75 -2 7 C-2.66 6.67 -3.32 6.34 -4 6 C-3.67 4.35 -3.34 2.7 -3 1 C-2.01 0.67 -1.02 0.34 0 0 Z " fill="#CA8ED1" transform="translate(197,299)"/>
<path d="M0 0 C0.99 0.33 1.98 0.66 3 1 C2.1875 3.4375 2.1875 3.4375 1 6 C0.01 6.33 -0.98 6.66 -2 7 C-1.125 1.125 -1.125 1.125 0 0 Z " fill="#8FAFC6" transform="translate(127,299)"/>
<path d="M0 0 C0.66 0.33 1.32 0.66 2 1 C1.5020163 4.73487777 1.12508244 6.81237635 -1 10 C-1.125 2.25 -1.125 2.25 0 0 Z " fill="#708496" transform="translate(107,285)"/>
<path d="M0 0 C0.66 0 1.32 0 2 0 C0.87994369 3.36016893 -0.37211797 4.69064913 -3 7 C-3.66 7 -4.32 7 -5 7 C-4.34 5.68 -3.68 4.36 -3 3 C-2.34 3 -1.68 3 -1 3 C-0.67 2.01 -0.34 1.02 0 0 Z " fill="#84B5C7" transform="translate(107,283)"/>
<path d="M0 0 C0.625 1.8125 0.625 1.8125 1 4 C0.01 5.485 0.01 5.485 -1 7 C-2.32 6.34 -3.64 5.68 -5 5 C-4.01 4.67 -3.02 4.34 -2 4 C-0.79117904 1.99983534 -0.79117904 1.99983534 0 0 Z " fill="#C178A1" transform="translate(305,275)"/>
<path d="M0 0 C0.66 0 1.32 0 2 0 C4.09230769 4.43076923 4.09230769 4.43076923 3.625 7.3125 C3.41875 7.869375 3.2125 8.42625 3 9 C0.70620251 5.55930376 0 4.27709699 0 0 Z " fill="#2B9B94" transform="translate(64,273)"/>
<path d="M0 0 C2.97 0.33 5.94 0.66 9 1 C9 1.99 9 2.98 9 4 C8.01 4 7.02 4 6 4 C6 3.34 6 2.68 6 2 C3.69 2.33 1.38 2.66 -1 3 C-0.67 2.01 -0.34 1.02 0 0 Z " fill="#22BEB7" transform="translate(70,272)"/>
<path d="M0 0 C3.40312738 1.05875074 6.01353231 2.00902154 9 4 C9 4.66 9 5.32 9 6 C7.0625 5.6875 7.0625 5.6875 5 5 C4.67 4.01 4.34 3.02 4 2 C1.98491642 1.26676204 1.98491642 1.26676204 0 1 C0 0.67 0 0.34 0 0 Z " fill="#26676C" transform="translate(71,266)"/>
<path d="M0 0 C0.99 0.33 1.98 0.66 3 1 C2.67 3.97 2.34 6.94 2 10 C1.34 9.67 0.68 9.34 0 9 C0 6 0 3 0 0 Z " fill="#807AAB" transform="translate(109,295)"/>
<path d="M0 0 C0.33 0 0.66 0 1 0 C1 2.97 1 5.94 1 9 C-0.32 9 -1.64 9 -3 9 C-2.01 6.03 -1.02 3.06 0 0 Z " fill="#80C2CC" transform="translate(109,273)"/>
<path d="M0 0 C0.99 0.33 1.98 0.66 3 1 C2.67 2.65 2.34 4.3 2 6 C1.01 6.33 0.02 6.66 -1 7 C-0.67 4.69 -0.34 2.38 0 0 Z " fill="#DA68A8" transform="translate(248,266)"/>
<path d="M0 0 C-2 2 -2 2 -5.125 2.125 C-6.548125 2.063125 -6.548125 2.063125 -8 2 C-8 1.34 -8 0.68 -8 0 C-4.94736336 -0.98120464 -3.05263664 -0.98120464 0 0 Z " fill="#526D8B" transform="translate(72,310)"/>
<path d="M0 0 C0.33 0 0.66 0 1 0 C1.33 1.98 1.66 3.96 2 6 C1.01 6.33 0.02 6.66 -1 7 C-1 6.34 -1 5.68 -1 5 C-1.66 4.67 -2.32 4.34 -3 4 C-2.02727325 2.64664105 -1.0260734 1.31337396 0 0 Z " fill="#983762" transform="translate(350,301)"/>
<path d="M0 0 C0.66 0 1.32 0 2 0 C2.33 1.65 2.66 3.3 3 5 C1.02 5.99 1.02 5.99 -1 7 C-0.67 4.69 -0.34 2.38 0 0 Z " fill="#973D75" transform="translate(381,304)"/>
<path d="M0 0 C0.66 1.32 1.32 2.64 2 4 C0.68 5.32 -0.64 6.64 -2 8 C-1.125 1.125 -1.125 1.125 0 0 Z " fill="#9479A7" transform="translate(184,300)"/>
<path d="M0 0 C1.32 0 2.64 0 4 0 C4 2.31 4 4.62 4 7 C2 5.1875 2 5.1875 0 3 C0 2.01 0 1.02 0 0 Z " fill="#14B9B4" transform="translate(49,282)"/>
<path d="M0 0 C2.4375 0.375 2.4375 0.375 5 1 C5.33 1.66 5.66 2.32 6 3 C4.35 3.33 2.7 3.66 1 4 C0.67 2.68 0.34 1.36 0 0 Z " fill="#71A7BE" transform="translate(112,265)"/>
</svg>
